<svg xmlns="http://www.w3.org/2000/svg" viewBox="0 0 500 500"><g id="freepik--Floor--inject-14"><g id="freepik--floor--inject-14"><ellipse cx="250" cy="337.08" rx="238.67" ry="137.79" style="fill:#BA68C8"></ellipse><ellipse cx="250" cy="337.08" rx="238.67" ry="137.79" style="fill:#fff;opacity:0.85"></ellipse></g></g><g id="freepik--Screens--inject-14"><g id="freepik--match-score--inject-14"><polygon points="387.54 37.02 450.07 73.09 450.07 117.68 387.54 81.62 387.54 37.02" style="fill:#ebebeb"></polygon><path d="M420.09,69.18c0,1.09-.57,1.65-1.28,1.24a3.4,3.4,0,0,1-1.29-2.73c0-1.09.58-1.65,1.29-1.24A3.4,3.4,0,0,1,420.09,69.18Z" style="opacity:0.15"></path><path d="M420.09,78.36c0,1.1-.57,1.65-1.28,1.24a3.4,3.4,0,0,1-1.29-2.72c0-1.1.58-1.65,1.29-1.24A3.39,3.39,0,0,1,420.09,78.36Z" style="opacity:0.15"></path><polygon points="387.54 37.02 391.4 34.79 453.93 70.86 450.07 73.09 387.54 37.02" style="fill:#fafafa"></polygon><polygon points="453.93 70.86 453.93 115.45 450.07 117.68 450.07 73.09 453.93 70.86" style="fill:#e0e0e0"></polygon><polygon points="391.4 44.66 414.57 58.04 414.57 84.8 391.4 71.42 391.4 44.66" style="fill:#fafafa"></polygon><path d="M399.78,69.44l-2.14-1.23a4,4,0,0,1-1.51-1.84,6.2,6.2,0,0,1-.63-2.69V57.09a2.61,2.61,0,0,1,.63-2,1.14,1.14,0,0,1,1.51-.09l2.14,1.23a3.93,3.93,0,0,1,1.51,1.84,6.2,6.2,0,0,1,.63,2.69v6.59a2.61,2.61,0,0,1-.63,2A1.13,1.13,0,0,1,399.78,69.44Zm-2.14-2.88,2.14,1.24a.67.67,0,0,0,.51.09l-3.72-10V64.3a3.1,3.1,0,0,0,.32,1.34A1.93,1.93,0,0,0,397.64,66.56Zm2.14-8.64-2.14-1.24a.69.69,0,0,0-.51-.09l3.72,10V60.18a3.09,3.09,0,0,0-.31-1.34A1.94,1.94,0,0,0,399.78,57.92Z" style="fill:#e0e0e0"></path><path d="M408.34,74.24,406.2,73a4,4,0,0,1-1.51-1.84,6.2,6.2,0,0,1-.63-2.69V61.88a2.62,2.62,0,0,1,.63-2,1.16,1.16,0,0,1,1.51-.09l2.14,1.23a3.93,3.93,0,0,1,1.51,1.84,6.2,6.2,0,0,1,.63,2.69v6.59a2.61,2.61,0,0,1-.63,2A1.14,1.14,0,0,1,408.34,74.24Zm-2.14-2.89,2.14,1.24a.67.67,0,0,0,.51.09l-3.72-10v6.45a3.1,3.1,0,0,0,.32,1.34A2,2,0,0,0,406.2,71.35Zm2.14-8.64-2.14-1.24a.64.64,0,0,0-.51-.08l3.72,10V65a3.09,3.09,0,0,0-.31-1.34A2,2,0,0,0,408.34,62.71Z" style="fill:#e0e0e0"></path><path d="M396.29,78.7l13.39,7.73a2.22,2.22,0,0,1,1,1.71c0,.62-.46.85-1,.52l-13.39-7.73a2.22,2.22,0,0,1-1-1.71C395.27,78.61,395.73,78.37,396.29,78.7Z" style="opacity:0.15"></path><polygon points="423.04 62.89 446.21 76.27 446.21 103.02 423.04 89.64 423.04 62.89" style="fill:#fafafa"></polygon><path d="M431.42,87.67l-2.14-1.23a4.11,4.11,0,0,1-1.52-1.84,6.21,6.21,0,0,1-.62-2.69V75.32a2.63,2.63,0,0,1,.62-2,1.17,1.17,0,0,1,1.52-.09l2.14,1.24a4,4,0,0,1,1.51,1.83,6.39,6.39,0,0,1,.62,2.69v6.59a2.67,2.67,0,0,1-.62,2A1.16,1.16,0,0,1,431.42,87.67Zm-2.14-2.88L431.42,86a.66.66,0,0,0,.5.09l-3.71-10v6.44a3.1,3.1,0,0,0,.31,1.35A2,2,0,0,0,429.28,84.79Zm2.14-8.65-2.14-1.23a.69.69,0,0,0-.51-.09l3.71,10V78.41a3.13,3.13,0,0,0-.31-1.35A2,2,0,0,0,431.42,76.14Z" style="fill:#e0e0e0"></path><path d="M440,92.61l-2.14-1.23a4,4,0,0,1-1.51-1.84,6.23,6.23,0,0,1-.63-2.69V80.26a2.63,2.63,0,0,1,.63-2,1.15,1.15,0,0,1,1.51-.09L440,79.44a4,4,0,0,1,1.51,1.83,6.26,6.26,0,0,1,.63,2.69v6.59a2.63,2.63,0,0,1-.63,2A1.16,1.16,0,0,1,440,92.61Zm-2.14-2.88L440,91a.67.67,0,0,0,.51.09l-3.72-10v6.44a3.1,3.1,0,0,0,.31,1.35A2,2,0,0,0,437.84,89.73ZM440,81.08l-2.14-1.23a.69.69,0,0,0-.51-.09l3.72,10V83.35a3.14,3.14,0,0,0-.32-1.35A2,2,0,0,0,440,81.08Z" style="fill:#e0e0e0"></path><path d="M427.93,96.94l13.39,7.73a2.19,2.19,0,0,1,1,1.71c0,.61-.46.84-1,.52l-13.39-7.73a2.22,2.22,0,0,1-1-1.71C426.9,96.84,427.36,96.61,427.93,96.94Z" style="opacity:0.15"></path><path d="M438.91,44.37h3V65.12h0a.72.72,0,0,1-.43.69,2.33,2.33,0,0,1-2.12,0,.69.69,0,0,1-.43-.69h0Z" style="fill:#e0e0e0"></path><path d="M441.91,44.37c0,.45-.67.82-1.5.82s-1.5-.37-1.5-.82.67-.83,1.5-.83S441.91,43.91,441.91,44.37Z" style="fill:#f0f0f0"></path><path d="M403.41,23.91h3V44.67h0a.68.68,0,0,1-.43.68,2.33,2.33,0,0,1-2.12,0,.69.69,0,0,1-.42-.68h0Z" style="fill:#e0e0e0"></path><path d="M406.41,23.91c0,.46-.67.82-1.5.82s-1.5-.36-1.5-.82.67-.82,1.5-.82S406.41,23.45,406.41,23.91Z" style="fill:#f0f0f0"></path></g><g id="freepik--match-score--inject-14"><polygon points="110.99 37.02 48.46 73.09 48.46 117.68 110.99 81.62 110.99 37.02" style="fill:#ebebeb"></polygon><path d="M78.44,69.18c0,1.09.57,1.65,1.28,1.24A3.37,3.37,0,0,0,81,67.69c0-1.09-.57-1.65-1.29-1.24A3.4,3.4,0,0,0,78.44,69.18Z" style="opacity:0.15"></path><ellipse cx="79.72" cy="77.62" rx="2.18" ry="1.17" transform="translate(-17.87 131.06) rotate(-72.94)" style="opacity:0.15"></ellipse><polygon points="110.99 37.02 107.13 34.79 44.6 70.86 48.46 73.09 110.99 37.02" style="fill:#fafafa"></polygon><polygon points="44.6 70.86 44.6 115.45 48.46 117.68 48.46 73.09 44.6 70.86" style="fill:#e0e0e0"></polygon><polygon points="107.13 44.66 83.96 58.04 83.96 84.8 107.13 71.42 107.13 44.66" style="fill:#fafafa"></polygon><path d="M97.24,69.35a2.61,2.61,0,0,1-.63-2V60.8a6.2,6.2,0,0,1,.63-2.69,4,4,0,0,1,1.51-1.84L100.89,55a1.14,1.14,0,0,1,1.51.09,2.61,2.61,0,0,1,.63,2v6.59a6.2,6.2,0,0,1-.63,2.69,4,4,0,0,1-1.51,1.84l-2.14,1.23A1.13,1.13,0,0,1,97.24,69.35Zm4.41-3.71A3.23,3.23,0,0,0,102,64.3V57.85l-3.72,10a.67.67,0,0,0,.51-.09l2.14-1.24A2,2,0,0,0,101.65,65.64ZM98,58.84a3.09,3.09,0,0,0-.31,1.34v6.45l3.72-10a.69.69,0,0,0-.51.09l-2.14,1.24A1.94,1.94,0,0,0,98,58.84Z" style="fill:#e0e0e0"></path><path d="M88.68,74.29a2.61,2.61,0,0,1-.63-2V65.74a6.2,6.2,0,0,1,.63-2.69,4,4,0,0,1,1.51-1.84L92.33,60a1.14,1.14,0,0,1,1.51.09,2.61,2.61,0,0,1,.63,2v6.59a6.2,6.2,0,0,1-.63,2.69,4,4,0,0,1-1.51,1.84l-2.14,1.23A1.13,1.13,0,0,1,88.68,74.29Zm4.41-3.71a3.23,3.23,0,0,0,.31-1.34V62.79l-3.72,10a.67.67,0,0,0,.51-.09l2.14-1.24A2,2,0,0,0,93.09,70.58Zm-3.66-6.8a3.09,3.09,0,0,0-.31,1.34v6.45l3.72-10a.69.69,0,0,0-.51.09l-2.14,1.24A1.94,1.94,0,0,0,89.43,63.78Z" style="fill:#e0e0e0"></path><path d="M102.24,78.7,88.85,86.43a2.22,2.22,0,0,0-1,1.71c0,.62.46.85,1,.52l13.39-7.73a2.2,2.2,0,0,0,1-1.71C103.27,78.61,102.81,78.37,102.24,78.7Z" style="opacity:0.15"></path><polygon points="75.49 62.89 52.32 76.27 52.32 103.02 75.49 89.64 75.49 62.89" style="fill:#fafafa"></polygon><path d="M65.6,87.58a2.67,2.67,0,0,1-.62-2V79a6.39,6.39,0,0,1,.62-2.69,4,4,0,0,1,1.52-1.83l2.14-1.24a1.16,1.16,0,0,1,1.51.09,2.63,2.63,0,0,1,.62,2v6.59a6.21,6.21,0,0,1-.62,2.69,4.09,4.09,0,0,1-1.51,1.84l-2.14,1.23A1.17,1.17,0,0,1,65.6,87.58ZM70,83.87a3.1,3.1,0,0,0,.31-1.35V76.08l-3.71,10a.69.69,0,0,0,.51-.09l2.14-1.23A2,2,0,0,0,70,83.87Zm-3.65-6.81a3.13,3.13,0,0,0-.31,1.35v6.44l3.72-10a.67.67,0,0,0-.51.09l-2.14,1.23A2,2,0,0,0,66.36,77.06Z" style="fill:#e0e0e0"></path><path d="M57,92.52a2.63,2.63,0,0,1-.63-2V84A6.26,6.26,0,0,1,57,81.27a4,4,0,0,1,1.51-1.83l2.14-1.24a1.17,1.17,0,0,1,1.52.09,2.67,2.67,0,0,1,.62,2v6.59a6.36,6.36,0,0,1-.62,2.69,4.11,4.11,0,0,1-1.52,1.84l-2.14,1.23A1.16,1.16,0,0,1,57,92.52Zm4.41-3.71a3.1,3.1,0,0,0,.31-1.35V81L58,91.05a.67.67,0,0,0,.51-.09l2.14-1.23A2,2,0,0,0,61.45,88.81ZM57.8,82a3.14,3.14,0,0,0-.32,1.35v6.44l3.72-10a.69.69,0,0,0-.51.09l-2.14,1.23A2,2,0,0,0,57.8,82Z" style="fill:#e0e0e0"></path><path d="M70.6,96.94l-13.39,7.73a2.19,2.19,0,0,0-1,1.71c0,.61.46.84,1,.52L70.6,99.17a2.22,2.22,0,0,0,1-1.71C71.63,96.84,71.17,96.61,70.6,96.94Z" style="opacity:0.15"></path><path d="M59.62,44.37h-3V65.12h0a.7.7,0,0,0,.42.69,2.33,2.33,0,0,0,2.12,0,.69.69,0,0,0,.43-.69h0Z" style="fill:#e0e0e0"></path><path d="M56.62,44.37c0,.45.67.82,1.5.82s1.5-.37,1.5-.82-.67-.83-1.5-.83S56.62,43.91,56.62,44.37Z" style="fill:#f0f0f0"></path><path d="M95.12,23.91h-3V44.67h0a.68.68,0,0,0,.43.68,2.33,2.33,0,0,0,2.12,0,.71.71,0,0,0,.43-.68h0Z" style="fill:#e0e0e0"></path><path d="M92.12,23.91c0,.46.67.82,1.5.82s1.5-.36,1.5-.82-.67-.82-1.5-.82S92.12,23.45,92.12,23.91Z" style="fill:#f0f0f0"></path></g></g><g id="freepik--Shadows--inject-14"><path id="freepik--Shadow--inject-14" d="M466.16,367.76,382,319.16a9.51,9.51,0,0,0-8.6,0l-99.92,57.69c-2.36,1.36-2.37,3.6,0,5l11.47,6.68L274,394.79c-2.36,1.36-2.37,3.6,0,5l51.66,30.07a9.46,9.46,0,0,0,8.59,0l10.88-6.28,12.1,7a9.46,9.46,0,0,0,8.59,0l100.31-57.92C468.53,371.36,468.53,369.12,466.16,367.76Z" style="fill:#BA68C8;opacity:0.30000000000000004"></path><path id="freepik--shadow--inject-14" d="M39.09,368.52l84.17-48.6a9.51,9.51,0,0,1,8.6,0l99.93,57.69c2.36,1.36,2.36,3.6,0,5l-11.46,6.67,10.87,6.29c2.37,1.36,2.37,3.6,0,5L179.56,430.6a9.49,9.49,0,0,1-8.59,0l-10.88-6.28-12.1,7a9.49,9.49,0,0,1-8.59,0L39.09,373.48C36.72,372.12,36.72,369.88,39.09,368.52Z" style="fill:#BA68C8;opacity:0.30000000000000004"></path></g><g id="freepik--character-2--inject-14"><g id="freepik--Character--inject-14"><path d="M317.16,317.71c0,12.57,4.4,21.4,11.54,25.51l3.8,2.2.14.08c7.14,4.12,17,3.52,27.87-2.76,21.75-12.55,39.4-43.11,39.4-68.23,0-12.58-4.41-21.39-11.54-25.52l-.32-.18-3.63-2.09c-7.13-4.13-17-3.53-27.87,2.75C334.8,262,317.16,292.58,317.16,317.71Zm8.17.34c.23-22.57,16.17-50.18,35.61-61.67,9.71-5.74,18.45-6.37,24.74-2.74s10.12,11.53,10,22.8c-.23,22.58-16.17,50.19-35.6,61.67-9.71,5.76-18.47,6.37-24.75,2.74S325.21,329.34,325.33,318.05Z" style="fill:#37474f"></path><path d="M321.1,320c0,12.48,4.36,21.27,11.4,25.42l.14.08c7.14,4.12,17,3.52,27.87-2.76,21.75-12.55,39.4-43.11,39.4-68.23,0-12.58-4.41-21.39-11.54-25.52l-.32-.18c-7.11-3.92-16.83-3.25-27.54,2.94C338.75,264.32,321.1,294.86,321.1,320Zm4.23-1.95c.23-22.57,16.17-50.18,35.61-61.67,9.71-5.74,18.45-6.37,24.74-2.74s10.12,11.53,10,22.8c-.23,22.58-16.17,50.19-35.6,61.67-9.71,5.76-18.47,6.37-24.75,2.74S325.21,329.34,325.33,318.05Z" style="fill:#455a64"></path><path d="M323.33,318.71a38.27,38.27,0,0,0,1.77,12.05l0,.12c1.8,5.49,5,9.52,9.06,11.89,6.74,3.9,16,3.33,26.3-2.6,20.52-11.84,37.17-40.68,37.17-64.39,0-11.85-4.15-20.18-10.89-24.06-4.25-2.45-9.53-3.13-15.42-1.82a39.45,39.45,0,0,0-10.86,4.42C340,266.18,323.33,295,323.33,318.71ZM334.07,340c-5.54-3.91-8.84-11.47-8.74-22,.23-22.57,16.17-50.18,35.61-61.67,8.95-5.29,17.08-6.25,23.22-3.51a14.44,14.44,0,0,1,1.52.77c6.29,3.63,10.12,11.53,10,22.8-.23,22.58-16.17,50.19-35.6,61.67-9.71,5.76-18.47,6.37-24.75,2.74C334.9,340.6,334.49,340.33,334.07,340Z" style="fill:#BA68C8"></path><path d="M334.07,340c.42.29.83.56,1.26.81,6.28,3.63,15,3,24.75-2.74,19.43-11.48,35.37-39.09,35.6-61.67.12-11.27-3.71-19.17-10-22.8a14.44,14.44,0,0,0-1.52-.77c5.5,3.93,8.78,11.48,8.67,22-.23,22.57-16.17,50.17-35.6,61.67C348.32,341.76,340.21,342.73,334.07,340Z" style="fill:#BA68C8"></path><path d="M334.07,340c.42.29.83.56,1.26.81,6.28,3.63,15,3,24.75-2.74,19.43-11.48,35.37-39.09,35.6-61.67.12-11.27-3.71-19.17-10-22.8a14.44,14.44,0,0,0-1.52-.77c5.5,3.93,8.78,11.48,8.67,22-.23,22.57-16.17,50.17-35.6,61.67C348.32,341.76,340.21,342.73,334.07,340Z" style="opacity:0.2"></path><path d="M358.87,295.51l-.64.95-31.14,8.33-.24,1.09,30.69-8.2-.48,1.43-31,27.47c.09.37.18.73.28,1.09L357,300.51l.42,1.07-22.44,39c.28.18.56.36.85.52l22.46-39,1.13-.17-8.15,39c.36-.09.73-.23,1.09-.34l8.24-39.47,1-1.14,7.59,28.3c.28-.24.55-.5.83-.75l-7.7-28.75.49-1L384,310c.16-.28.32-.58.49-.87l-21.18-12.22.65-.94,28.47-7.63.21-1.09-28,7.5.48-1.43L393.61,268c-.09-.36-.2-.71-.31-1.06l-28.13,24.93-.42-1.07L386,254c-.28-.18-.57-.33-.87-.49l-21.27,36.84-1.14.16,7.84-38.28c-.36.09-.71.18-1.08.29l-7.94,38.76-1,1.14-8-29.93-.84.74,8.14,30.39-.49,1-22.58-13-.51.86Z" style="fill:#ebebeb"></path><path d="M327.52,321.09a37.92,37.92,0,0,0,1.77,12c0,.05,0,.08,0,.13,1.8,5.49,5,9.52,9.07,11.89,6.74,3.89,16,3.32,26.29-2.6,20.53-11.85,37.18-40.68,37.18-64.39,0-11.85-4.16-20.19-10.9-24.07-4.24-2.44-9.52-3.12-15.42-1.81a39.52,39.52,0,0,0-10.86,4.41C344.17,268.56,327.52,297.37,327.52,321.09Zm10.74,21.32c-5.54-3.91-8.85-11.46-8.74-22,.23-22.57,16.17-50.17,35.6-61.66,9-5.3,17.08-6.25,23.22-3.51a12.75,12.75,0,0,1,1.52.77c6.3,3.63,10.13,11.52,10,22.8-.23,22.57-16.17,50.19-35.6,61.67-9.71,5.75-18.46,6.37-24.74,2.74C339.09,343,338.67,342.7,338.26,342.41Z" style="fill:#e6e6e6"></path><path d="M327.52,321.09a37.92,37.92,0,0,0,1.77,12c0,.05,0,.08,0,.13,1.8,5.49,5,9.52,9.07,11.89,6.74,3.89,16,3.32,26.29-2.6,20.53-11.85,37.18-40.68,37.18-64.39,0-11.85-4.16-20.19-10.9-24.07-4.24-2.44-9.52-3.12-15.42-1.81a39.52,39.52,0,0,0-10.86,4.41C344.17,268.56,327.52,297.37,327.52,321.09Zm10.74,21.32c-5.54-3.91-8.85-11.46-8.74-22,.23-22.57,16.17-50.17,35.6-61.66,9-5.3,17.08-6.25,23.22-3.51a12.75,12.75,0,0,1,1.52.77c6.3,3.63,10.13,11.52,10,22.8-.23,22.57-16.17,50.19-35.6,61.67-9.71,5.75-18.46,6.37-24.74,2.74C339.09,343,338.67,342.7,338.26,342.41Z" style="opacity:0.2"></path><path d="M353.4,300.19c0,2.13.74,3.64,1.93,4.36.38.22.67.36,1,.56a3.57,3.57,0,0,0,2.22.52h0l.49-.08.15,0,.39-.11.27-.07.28-.11.4-.16a7.88,7.88,0,0,0,.7-.37,15,15,0,0,0,6.81-11.79q0-.39,0-.75c0-.09,0-.17,0-.25s0-.31-.06-.45-.05-.19-.07-.29a3.37,3.37,0,0,0-.09-.34,2.83,2.83,0,0,0-.11-.31,2.6,2.6,0,0,0-.1-.25,3.13,3.13,0,0,0-.15-.32,1.62,1.62,0,0,1-.1-.18l-.21-.31a1.25,1.25,0,0,0-.09-.12q-.13-.17-.27-.3l-.07-.07-.34-.28h0l-.05,0-.26-.17c-.33-.2-.64-.34-.9-.5-1.24-.78-3-.71-4.91.41A15,15,0,0,0,353.4,300.19Zm8.55,1.42c-.57-1.09-.68-3.25,0-4.07s.68.38,2.45-.53a12.9,12.9,0,0,0,1.19-.73,16.57,16.57,0,0,1-3.45,5.2A1,1,0,0,1,362,301.61Zm-4.1-8.39a1.14,1.14,0,0,1,.07-.19,11.46,11.46,0,0,1,4.45-3.46,9.5,9.5,0,0,1-1.81,5.09,1.36,1.36,0,0,0-.52-.52l-1.05-.59a1.57,1.57,0,0,0-.29-.14A4.67,4.67,0,0,0,357.85,293.22Zm7-3.92a5.17,5.17,0,0,1,1.17,3.45c-.14,1.29-2.32,2.59-3.66,2.81.06-.67.92-1,1.49-3C364.34,290.83,364.3,289.55,364.87,289.3Zm-8.15,14.37-.07-.09c-.54-.86,1.55-3.74,3-4.84a3.59,3.59,0,0,0,0,1.95c.36,1.34,1.15,2,.44,2.62A4.52,4.52,0,0,1,356.72,303.67Zm-1.38-2.81a12.74,12.74,0,0,1,1.16-5.08,1.75,1.75,0,0,1,2.14-.72,1.37,1.37,0,0,1,.48,1.42c-.36,1.06-.94.38-2.42,2.35C356.13,299.58,355.69,300.33,355.34,300.86Z" style="fill:#e0e0e0"></path><path d="M353.4,300.19c0,2.13.74,3.64,1.93,4.36.38.22.67.36,1,.56a3.57,3.57,0,0,0,2.22.52h0l.49-.08.15,0,.39-.11.27-.07.28-.11.4-.16a7.88,7.88,0,0,0,.7-.37,15,15,0,0,0,6.81-11.79q0-.39,0-.75c0-.09,0-.17,0-.25s0-.31-.06-.45-.05-.19-.07-.29a3.37,3.37,0,0,0-.09-.34,2.83,2.83,0,0,0-.11-.31,2.6,2.6,0,0,0-.1-.25,3.13,3.13,0,0,0-.15-.32,1.62,1.62,0,0,1-.1-.18l-.21-.31a1.25,1.25,0,0,0-.09-.12q-.13-.17-.27-.3l-.07-.07-.34-.28h0l-.05,0-.26-.17c-.33-.2-.64-.34-.9-.5-1.24-.78-3-.71-4.91.41A15,15,0,0,0,353.4,300.19Zm8.55,1.42c-.57-1.09-.68-3.25,0-4.07s.68.38,2.45-.53a12.9,12.9,0,0,0,1.19-.73,16.57,16.57,0,0,1-3.45,5.2A1,1,0,0,1,362,301.61Zm-4.1-8.39a1.14,1.14,0,0,1,.07-.19,11.46,11.46,0,0,1,4.45-3.46,9.5,9.5,0,0,1-1.81,5.09,1.36,1.36,0,0,0-.52-.52l-1.05-.59a1.57,1.57,0,0,0-.29-.14A4.67,4.67,0,0,0,357.85,293.22Zm7-3.92a5.17,5.17,0,0,1,1.17,3.45c-.14,1.29-2.32,2.59-3.66,2.81.06-.67.92-1,1.49-3C364.34,290.83,364.3,289.55,364.87,289.3Zm-8.15,14.37-.07-.09c-.54-.86,1.55-3.74,3-4.84a3.59,3.59,0,0,0,0,1.95c.36,1.34,1.15,2,.44,2.62A4.52,4.52,0,0,1,356.72,303.67Zm-1.38-2.81a12.74,12.74,0,0,1,1.16-5.08,1.75,1.75,0,0,1,2.14-.72,1.37,1.37,0,0,1,.48,1.42c-.36,1.06-.94.38-2.42,2.35C356.13,299.58,355.69,300.33,355.34,300.86Z" style="opacity:0.2"></path><path d="M354.46,300.78c0,4.34,3,6.1,6.8,3.93a15,15,0,0,0,6.81-11.79c0-4.34-3.05-6.1-6.81-3.93A15,15,0,0,0,354.46,300.78Zm6.82-5.29c-.81.34-.16-1-1.54-1.48-1.08-.39-2.27,0-1.82-1s3.68-3.56,5-3.58S362.46,295,361.28,295.49Zm5.81-2.15c-.21,1.83-4.49,3.69-4.7,2.44-.14-.85.85-1,1.48-3.26.5-1.8.41-3.16,1.11-3.27S367.29,291.51,367.09,293.34Zm-5.13,4.2c.72-.86.68.38,2.45-.53,1.39-.72,2.53-1.91,2.51-1.05s-2.25,5-3.72,6.11S360.9,298.8,362,297.54Zm-1.38.8c.59.31-.42,1.23,0,2.93.36,1.35,1.15,2,.44,2.63s-3.7.8-4.41-.32S359.73,297.87,360.58,298.34Zm-5.08,3.75c-.42-.46,0-4.47,1-6.31s4.19-.25,3.66,1.29c-.36,1.05-.94.38-2.42,2.35C356.57,301,355.92,302.55,355.5,302.09Z" style="fill:#e0e0e0"></path><path d="M361.08,297.94c-.6.35-1.09.07-1.09-.62a2.4,2.4,0,0,1,1.09-1.88c.6-.35,1.08-.07,1.08.62A2.37,2.37,0,0,1,361.08,297.94Z" style="fill:#455a64"></path><path d="M431.63,334.91a1.06,1.06,0,0,1,.45,1,3.35,3.35,0,0,1-1.52,2.63,1.06,1.06,0,0,1-1.07.11L360,298.58a1.07,1.07,0,0,1-.45-1,3.34,3.34,0,0,1,1.52-2.62,1,1,0,0,1,1.07-.11Z" style="fill:#263238"></path><path d="M430.56,338.52a.93.93,0,0,1-1.52-.87,3.35,3.35,0,0,1,1.52-2.63.93.93,0,0,1,1.52.87A3.35,3.35,0,0,1,430.56,338.52Z" style="fill:#455a64"></path><path d="M305.89,330.33c4.11,7.78,2.78,17.69,2.63,21.07s1.54,2.72,2.5,0,3.49-13.83-.81-23.53Z" style="fill:#ebebeb"></path><path d="M298,354.51c0-6.25,4.39-13.86,9.8-17,2.84-1.64,5.39-1.71,7.18-.51h0l4.19,2.36-14.07,23.89L301,360.92v0C299.16,359.91,298,357.7,298,354.51Z" style="fill:#455a64"></path><path d="M312.25,340.07c-5.42,3.12-9.81,10.73-9.81,17s4.39,8.79,9.81,5.66,9.8-10.73,9.8-17S317.66,336.94,312.25,340.07Z" style="fill:#263238"></path><path d="M312.25,347.4a7.63,7.63,0,0,0-3.46,6c0,2.2,1.55,3.09,3.46,2a7.63,7.63,0,0,0,3.45-6C315.7,347.19,314.15,346.3,312.25,347.4Z"></path><path d="M308.79,330c4.11,7.78,2.78,17.68,2.63,21.07s1.55,2.72,2.5,0,3.5-13.83-.8-23.53Z" style="fill:#fafafa"></path><path d="M275.45,369.53l11.76-24.81h0l17.35-35.9a30.19,30.19,0,0,1,11.3-12.7v3.5a27.46,27.46,0,0,0-8.68,10.45L291.8,341.83l55.8-45.27v3.34l-58,46.5-11.55,24.38a1.46,1.46,0,0,1-1.31.83,1.6,1.6,0,0,1-.63-.14A1.47,1.47,0,0,1,275.45,369.53Z" style="fill:#e0e0e0"></path><path d="M275.45,369.53l11.76-24.81h0l17.35-35.9a30.19,30.19,0,0,1,11.3-12.7v3.5a27.46,27.46,0,0,0-8.68,10.45L291.8,341.83l55.8-45.27v3.34l-58,46.5-11.55,24.38a1.46,1.46,0,0,1-1.31.83,1.6,1.6,0,0,1-.63-.14A1.47,1.47,0,0,1,275.45,369.53Z" style="opacity:0.2"></path><polygon points="328.88 410.37 348.56 399.01 285.6 362.65 265.91 374.01 328.88 410.37" style="fill:#BA68C8"></polygon><polygon points="348.56 399.01 348.56 403.55 328.88 414.91 328.88 410.37 348.56 399.01" style="fill:#BA68C8"></polygon><polygon points="348.56 399.01 348.56 403.55 328.88 414.91 328.88 410.37 348.56 399.01" style="opacity:0.30000000000000004"></polygon><polygon points="265.91 374.01 265.91 378.56 328.88 414.91 328.88 410.37 265.91 374.01" style="fill:#BA68C8"></polygon><polygon points="265.91 374.01 265.91 378.56 328.88 414.91 328.88 410.37 265.91 374.01" style="opacity:0.15"></polygon><path d="M371.76,365.72c4.11,7.78,2.77,17.69,2.63,21.07s1.54,2.72,2.5,0,3.49-13.83-.81-23.53Z" style="fill:#e0e0e0"></path><path d="M363.88,389.9c0-6.25,4.39-13.86,9.8-17,2.84-1.64,5.39-1.71,7.18-.51h0l4.18,2.36L371,398.66l-4.12-2.35v0C365,395.29,363.88,393.09,363.88,389.9Z" style="fill:#455a64"></path><path d="M378.11,375.45c-5.41,3.13-9.8,10.73-9.8,17s4.39,8.78,9.8,5.66,9.81-10.73,9.81-17S383.53,372.33,378.11,375.45Z" style="fill:#37474f"></path><path d="M378.11,382.79a7.65,7.65,0,0,0-3.45,6c0,2.2,1.55,3.09,3.45,2a7.63,7.63,0,0,0,3.46-6C381.57,382.58,380,381.69,378.11,382.79Z" style="fill:#263238"></path><path d="M374.66,365.4c4.11,7.78,2.78,17.68,2.63,21.07s1.55,2.72,2.5,0,3.49-13.83-.81-23.53Z" style="fill:#f5f5f5"></path><path d="M388.23,328.7a1.46,1.46,0,0,0-2-.53l-1.24.72a30.25,30.25,0,0,0-12.28,13.32l-17.35,35.9h0L343.6,402.93a1.47,1.47,0,0,0,.69,1.94,1.6,1.6,0,0,0,.63.14,1.46,1.46,0,0,0,1.31-.83l11.55-24.38L419,331.43a1.46,1.46,0,0,0-1.44-2.53L360,375.23l15.39-31.77a27.35,27.35,0,0,1,11.12-12l1.24-.72A1.46,1.46,0,0,0,388.23,328.7Z" style="fill:#e0e0e0"></path><path d="M388.23,328.7a1.46,1.46,0,0,0-2-.53l-1.24.72a30.25,30.25,0,0,0-12.28,13.32l-17.35,35.9h0L343.6,402.93a1.47,1.47,0,0,0,.69,1.94,1.6,1.6,0,0,0,.63.14,1.46,1.46,0,0,0,1.31-.83l11.55-24.38L419,331.43a1.46,1.46,0,0,0-1.44-2.53L360,375.23l15.39-31.77a27.35,27.35,0,0,1,11.12-12l1.24-.72A1.46,1.46,0,0,0,388.23,328.7Z" style="opacity:0.2"></path><path d="M447,233.25l-3.79-6.54,16-9.25h0a1.89,1.89,0,0,1,1.92.17,5.9,5.9,0,0,1,2.67,4.63,1.88,1.88,0,0,1-.74,1.7h0l0,0h0Z" style="fill:#455a64"></path><path d="M447.8,231.53c0,1.7-1.2,2.39-2.68,1.54a5.93,5.93,0,0,1-2.67-4.63c0-1.71,1.2-2.4,2.67-1.55A5.93,5.93,0,0,1,447.8,231.53Z" style="fill:#37474f"></path><path d="M445,228.4a1,1,0,0,0-.79-.13l-.22.13-11.17,6.45,3.56,2.05,9.3-5.37.41-.22a1.08,1.08,0,0,0,.2-.68A2.87,2.87,0,0,0,445,228.4Z" style="fill:#e0e0e0"></path><path d="M400,206.07l-3.79-6.54,16-9.25h0a1.84,1.84,0,0,1,1.92.17,5.9,5.9,0,0,1,2.67,4.63,1.87,1.87,0,0,1-.75,1.7h0l0,0h0Z" style="fill:#455a64"></path><path d="M400.75,204.35c0,1.7-1.2,2.39-2.68,1.54a5.93,5.93,0,0,1-2.67-4.63c0-1.71,1.2-2.4,2.67-1.55A5.93,5.93,0,0,1,400.75,204.35Z" style="fill:#37474f"></path><path d="M397.93,201.22a1,1,0,0,0-.79-.13l-.22.13-11.17,6.45,3.56,2.05,9.3-5.37.41-.22a1.08,1.08,0,0,0,.2-.68A2.87,2.87,0,0,0,397.93,201.22Z" style="fill:#e0e0e0"></path><path d="M376.65,338l56.43-32.6a7.89,7.89,0,0,0,3.56-6.18V295.9a7.88,7.88,0,0,0-3.56-6.18l-56.43-32.58a7.92,7.92,0,0,0-7.13,0L313.1,289.72a7.89,7.89,0,0,0-3.57,6.18v3.37a7.88,7.88,0,0,0,3.57,6.17L369.52,338A7.86,7.86,0,0,0,376.65,338Z" style="fill:#BA68C8"></path><path d="M375.61,338.45a5.44,5.44,0,0,0,1-.45l56.43-32.6a7.89,7.89,0,0,0,3.56-6.18v-3.33a8,8,0,0,0-2.89-5.7c1.26,1.14,1,2.66-.67,3.64l-56.16,32.43Z" style="opacity:0.30000000000000004"></path><path d="M309.53,295.89v3.37a7.89,7.89,0,0,0,3.57,6.18L369.52,338a7.94,7.94,0,0,0,6.09.44l1.31-12.18-.27.15a7.86,7.86,0,0,1-7.13,0L313.1,293.83c-1.72-1-1.94-2.51-.67-3.64A8,8,0,0,0,309.53,295.89Z" style="opacity:0.15"></path><path d="M364.55,266.59,421,299.16a7.36,7.36,0,0,0,4.17.83c.21,0,.43,0,.63-.07l.13,0,.37-.07h.05l.56-.14a5.82,5.82,0,0,0,1.22-.52l2.9-1.67a10.05,10.05,0,0,0,4.29-6.11l8.58-47.9a5.35,5.35,0,0,0,.08-.89c0-.12,0-.24,0-.35a6.59,6.59,0,0,0-2.27-4.45l-.25-.18-.37-.25-56.43-32.57a7.86,7.86,0,0,0-7.13,0l-2.9,1.67a7.84,7.84,0,0,0-1.72,1.4c-.1.1-.19.21-.28.31a10,10,0,0,0-1,1.41,2.14,2.14,0,0,0-.2.32,2.69,2.69,0,0,0-.16.29c-.08.14-.15.27-.22.42a3.17,3.17,0,0,0-.19.42l-.15.35-.06.17c0,.11-.07.21-.1.32s-.08.27-.11.41-.05.19-.07.29l-8.58,47.91A6.29,6.29,0,0,0,364.55,266.59Z" style="fill:#BA68C8"></path><path d="M433.85,249.27l-8.58,47.9a2.71,2.71,0,0,1-4.3,2l-56.42-32.57a6.28,6.28,0,0,1-2.84-6.11l8.58-47.9a2.71,2.71,0,0,1,4.29-2L431,243.16A6.28,6.28,0,0,1,433.85,249.27Z" style="fill:#BA68C8"></path><path d="M433.85,249.27l-8.58,47.9a2.71,2.71,0,0,1-4.3,2l-56.42-32.57a6.28,6.28,0,0,1-2.84-6.11l8.58-47.9a2.71,2.71,0,0,1,4.29-2L431,243.16A6.28,6.28,0,0,1,433.85,249.27Z" style="opacity:0.15"></path><path d="M422.43,299.74a8.53,8.53,0,0,0,2.72.25c.21,0,.43,0,.63-.07a4,4,0,0,0,.5-.09h.05l.56-.14a5.82,5.82,0,0,0,1.22-.52l2.9-1.67a10.05,10.05,0,0,0,4.29-6.11l8.58-47.9a5.35,5.35,0,0,0,.08-.89c0-.12,0-.24,0-.35a6.25,6.25,0,0,0-.39-1.75l-10.06,5.72a5.72,5.72,0,0,1,.36,3.06l-8.58,47.9a2.66,2.66,0,0,1-2.83,2.48A.28.28,0,0,1,422.43,299.74Z" style="opacity:0.30000000000000004"></path><path d="M316.25,358.08l7.08-14.37-19.95-8.08s-3.18,12.13-5,18.86a19.49,19.49,0,0,1-5.52,9.21,10.35,10.35,0,0,0,11.93,4.59C313.15,366.17,316.25,358.08,316.25,358.08Z" style="fill:#ffa8a7"></path><path d="M301.93,340.18c-.09.39-1.73,6.58-1.73,6.58a16.43,16.43,0,0,0,9.42,6.52c6.27,1.51,9.29.18,9.29.18l3.17-6.37Z" style="fill:#37474f"></path><path d="M265.9,380.61c-.33,0-1.17,3.42.46,5.08,1.89,1.91,7.66,5.32,15.75,5.09s10.47-1.57,13.93-3.84,6.66-4.71,10.35-5.14c3.43-.39,8.67-1.2,9.85-2.1s1.47-5.37,1.47-5.37Z" style="fill:#263238"></path><path d="M318,355a1.43,1.43,0,0,1,1.25,1.19c.12,1.25-1.35,4.6-1,6.67a49.24,49.24,0,0,1-.78,13c-.67,2.24-7.75,3-11.37,3.94s-6.47,2.5-10.38,5a25.32,25.32,0,0,1-15.29,3.81c-6.16-.64-12.9-3.23-14.22-6.15-1.62-3.6-1.59-6.91,8-10.12,1.8-.61,7.44-3.12,9.63-4.18a40.08,40.08,0,0,0,6.83-4.06,12.64,12.64,0,0,0,3.72-4.08c.85-1.53,1.46-3.18,2.22-4.75a.78.78,0,0,1,.28-.36.89.89,0,0,1,.4,0,23,23,0,0,1,9.13,3.1,2.59,2.59,0,0,1,1,.9c.37.68-.22,1.67.22,2.2.27.33.8.13,1.08-.07a23.48,23.48,0,0,0,2.75-2.62c.48-.48,2.79-.42,3.38-.78a15.06,15.06,0,0,0,1.66-.82C317,356.33,317.85,355.68,318,355Z" style="fill:#37474f"></path><path d="M295.65,384.83a46.81,46.81,0,0,1,4.55-2.73h0s-10.11,2.78-14.16-.5c-2.62-2.11-1.06-4.23-.92-4.94s-6.46-4.44-9.14-5h0c-.8.33-1.47.6-1.88.74-9.55,3.21-9.58,6.52-8,10.12,1.32,2.92,6.13,5.55,14.09,6.32A26.09,26.09,0,0,0,295.65,384.83Z" style="fill:#455a64"></path><path d="M286.08,374.63c-5.9,1.65-3.58,2.91-2,3.28s10-3.32,16.3-7.21c6.55-4.07,13.72-8.22,16.15-9.71.91-.56,1.24-1.25,2.12-1.91a12.75,12.75,0,0,0,.56-2.92c-.11-1.05-1.34-1.47-1.34-1.47l-1.45,2.13a4.3,4.3,0,0,1-1.74.65c-1.3.32-2.82.47-3.3.95a23.48,23.48,0,0,1-2.75,2.62C303.06,366.64,292,373,286.08,374.63Z" style="fill:#263238"></path><path d="M284.55,377.14a.54.54,0,0,0,.52-.84,13.76,13.76,0,0,0-10-5,.55.55,0,1,0,0,1.09,12.81,12.81,0,0,1,9.06,4.48A.54.54,0,0,0,284.55,377.14Z" style="fill:#f0f0f0"></path><path d="M289.79,374.92a.62.62,0,0,0,.37-.08.53.53,0,0,0,.17-.75,13.69,13.69,0,0,0-9.89-5.19.54.54,0,0,0-.57.53.56.56,0,0,0,.55.56,12.77,12.77,0,0,1,9,4.68A.56.56,0,0,0,289.79,374.92Z" style="fill:#f0f0f0"></path><path d="M294.68,372.29a.64.64,0,0,0,.37-.09.53.53,0,0,0,.15-.76,13.76,13.76,0,0,0-10-5,.55.55,0,1,0,0,1.1,12.76,12.76,0,0,1,9.06,4.47A.59.59,0,0,0,294.68,372.29Z" style="fill:#f0f0f0"></path><path d="M299,369.9a.62.62,0,0,0,.37-.08.54.54,0,0,0,.19-.75,13.77,13.77,0,0,0-9.79-5.37.56.56,0,0,0-.58.53.54.54,0,0,0,.55.56,12.76,12.76,0,0,1,8.85,4.85A.6.6,0,0,0,299,369.9Z" style="fill:#f0f0f0"></path><path d="M303.69,367a.7.7,0,0,0,.37-.07.53.53,0,0,0,.19-.75c-1.82-3-6.53-5.4-10.75-5.51a.55.55,0,0,0-.58.53.56.56,0,0,0,.55.56c3.8.11,8.2,2.34,9.81,5A.57.57,0,0,0,303.69,367Z" style="fill:#f0f0f0"></path><path d="M339,372.27,346,357.9l-20-8.08s-3.18,12.13-5,18.86a19.4,19.4,0,0,1-5.52,9.21,10.37,10.37,0,0,0,11.94,4.59C335.86,380.36,339,372.27,339,372.27Z" style="fill:#ffa8a7"></path><path d="M324.63,354.37c-.08.39-1.73,6.58-1.73,6.58a16.48,16.48,0,0,0,9.42,6.52c6.28,1.51,9.29.18,9.29.18l3.17-6.37Z" style="fill:#37474f"></path><path d="M288.6,394.8c-.32,0-1.17,3.42.47,5.08,1.89,1.91,7.65,5.31,15.74,5.08s10.48-1.56,13.93-3.84,6.66-4.7,10.35-5.13c3.43-.39,8.68-1.2,9.85-2.1s1.47-5.37,1.47-5.37Z" style="fill:#263238"></path><path d="M340.65,369.16a1.43,1.43,0,0,1,1.25,1.19c.12,1.25-1.35,4.6-1,6.66a49.73,49.73,0,0,1-.77,13c-.67,2.24-7.75,3-11.38,3.94s-6.47,2.5-10.38,5a25.35,25.35,0,0,1-15.29,3.81c-6.15-.64-12.9-3.23-14.21-6.15-1.63-3.6-1.59-6.91,7.95-10.12,1.81-.61,7.44-3.12,9.64-4.18a39.4,39.4,0,0,0,6.82-4.07,12.52,12.52,0,0,0,3.73-4.07c.84-1.53,1.46-3.18,2.22-4.75a.67.67,0,0,1,.28-.36.74.74,0,0,1,.39,0,22.84,22.84,0,0,1,9.13,3.1,2.59,2.59,0,0,1,1,.9c.37.68-.22,1.67.22,2.2.28.33.8.13,1.09-.07a25.21,25.21,0,0,0,2.75-2.62c.48-.48,2.78-.42,3.37-.78a15.12,15.12,0,0,0,1.66-.83C339.72,370.52,340.56,369.87,340.65,369.16Z" style="fill:#37474f"></path><path d="M318.35,399a46.81,46.81,0,0,1,4.55-2.73h0s-10.1,2.78-14.16-.5c-2.61-2.12-1.06-4.23-.92-4.94s-6.45-4.44-9.14-5h0c-.8.33-1.46.6-1.88.74-9.54,3.21-9.58,6.52-7.95,10.12,1.31,2.92,6.12,5.55,14.09,6.32A26.06,26.06,0,0,0,318.35,399Z" style="fill:#455a64"></path><path d="M308.78,388.82c-5.9,1.65-3.58,2.91-2,3.28s10-3.32,16.31-7.21c6.55-4.07,13.72-8.22,16.15-9.71.9-.56,1.23-1.25,2.11-1.91a11.73,11.73,0,0,0,.56-2.92c-.1-1.05-1.34-1.47-1.34-1.47L339.11,371a4.32,4.32,0,0,1-1.74.66c-1.29.32-2.81.47-3.29.95a24.2,24.2,0,0,1-2.75,2.61C325.76,380.83,314.68,387.17,308.78,388.82Z" style="fill:#263238"></path><path d="M307.25,391.33a.49.49,0,0,0,.37-.09.53.53,0,0,0,.16-.75,13.8,13.8,0,0,0-10-5,.55.55,0,1,0,0,1.09,12.79,12.79,0,0,1,9.06,4.48A.55.55,0,0,0,307.25,391.33Z" style="fill:#f0f0f0"></path><path d="M312.49,389.11a.62.62,0,0,0,.37-.08.54.54,0,0,0,.17-.76,13.72,13.72,0,0,0-9.89-5.18.54.54,0,0,0-.57.53.57.57,0,0,0,.56.56,12.74,12.74,0,0,1,8.95,4.68A.58.58,0,0,0,312.49,389.11Z" style="fill:#f0f0f0"></path><path d="M317.38,386.47a.54.54,0,0,0,.37-.08.54.54,0,0,0,.16-.76,13.81,13.81,0,0,0-10-5,.55.55,0,1,0,0,1.09,12.82,12.82,0,0,1,9.06,4.48A.51.51,0,0,0,317.38,386.47Z" style="fill:#f0f0f0"></path><path d="M321.71,384.08a.54.54,0,0,0,.37-.07.53.53,0,0,0,.19-.75,13.74,13.74,0,0,0-9.79-5.37.55.55,0,1,0,0,1.09,12.73,12.73,0,0,1,8.86,4.85A.56.56,0,0,0,321.71,384.08Z" style="fill:#f0f0f0"></path><path d="M326.4,381.23a.65.65,0,0,0,.36-.07.54.54,0,0,0,.2-.75c-1.82-3-6.54-5.4-10.76-5.51a.55.55,0,1,0,0,1.09c3.8.1,8.2,2.34,9.82,5A.56.56,0,0,0,326.4,381.23Z" style="fill:#f0f0f0"></path><path d="M422.79,264.2v-.9L365.1,251.88s-24,12-37.58,20.44-20.13,19.05-21.42,28.54c-1.17,8.64-4.18,25.1-4.73,34.46-.41,7,1.85,11.14,7.9,13,8.47,2.6,13.87.91,15.17-3.37.44-1.44,1.29-4.08,2.32-7.25-1.27,5.89-2.24,11.08-2.54,13.84-.73,6.61,5.29,9.85,11,11s10.26-.32,11.81-3,8.07-14.75,10.74-23.59,2.32-11.73,5.7-13.28,35.83-13.93,48.24-22.75S423.48,272,422.79,264.2Z" style="fill:#fafafa"></path><path d="M365.24,252.93l56.55,11.19v.17c.86,9.55.61,26.77-10.66,34.78-10.11,7.18-33.7,16.77-43.77,20.86-2.22.91-3.69,1.51-4.31,1.79-2.9,1.33-3.48,3.57-4.62,8-.4,1.57-.9,3.53-1.61,5.88-3,9.79-10.58,23.25-10.66,23.39-1,1.8-3.76,2.93-7.14,2.93a18.3,18.3,0,0,1-3.6-.38c-3.32-.67-11-3-10.21-9.91.28-2.58,1.67-10,2.08-13.09s.81-6.26,1.26-8.8c-.09,0,.49-3.88.4-3.88-.68,3.06-3,11.09-3.14,11.51l-.41,1.27c-.86,2.66-1.54,4.75-1.92,6-.76,2.51-3.24,3.9-7,3.9a24.1,24.1,0,0,1-6.94-1.2c-5.43-1.67-7.59-5.26-7.19-12,.37-6.4,1.89-16,3.22-24.5.59-3.7,1.14-7.19,1.5-9.88,1.42-10.4,8.86-20.28,21-27.82,12.56-7.83,34.36-18.82,37.19-20.24m-.14-1.05s-24,12-37.58,20.44-20.13,19.05-21.42,28.54c-1.17,8.64-4.18,25.1-4.73,34.46-.41,7,1.85,11.14,7.9,13a25.07,25.07,0,0,0,7.23,1.24c4.31,0,7.06-1.72,7.94-4.61.44-1.44,1.29-4.08,2.32-7.25-1.27,5.89-2.24,11.08-2.54,13.84-.73,6.61,5.29,9.85,11,11a19.27,19.27,0,0,0,3.8.4c3.88,0,6.82-1.35,8-3.44,1.55-2.72,8.07-14.75,10.74-23.59s2.32-11.73,5.7-13.28,35.83-13.93,48.24-22.75S423.48,272,422.79,264.2v-.9L365.1,251.88Z" style="fill:#e0e0e0"></path><path d="M339.18,300.64s-3.14,2-6.43,13c-1.87,6.27-4.16,15.61-5.91,23.7,1.61-14,5.31-29.09,7.56-34.22s4.25-7.08,9.32-10.65,21.16-12.3,21.16-12.3S361.73,274,361.83,269c4.74,9.48,10.77,12.05,10.77,12.05s-9.18,4.15-16.59,8.51c-6.09,3.58-13.21,6.66-16.83,11.08" style="fill:#e0e0e0"></path><path d="M312.33,235.68c-3.26-.25-5.39-2.17-8.09-3.51a19.52,19.52,0,0,0-5.63-1.71l-1.35,22.92a51.59,51.59,0,0,0,6.23-.2c2.59-.31,4.87-1.48,8.29-1Z" style="fill:#e0e0e0"></path><path d="M365.6,186.2c-7.86,2.56-11.91,5.21-14.56,19.87-2.81,15.54-4.67,28.54-4.67,28.54l-35.65.4s2.36,7.43-1.19,17.86c0,0,21.56,2,37.52,3.42,15.78,1.4,16.89-1.87,19.93-13.36s5.62-29.08,5.62-29.08Z" style="fill:#f5f5f5"></path><path d="M364.9,187.49l6.68,26.41c-.29,2-2.75,18.12-5.57,28.77-2.56,9.67-3.42,12.92-13.07,12.92-1.63,0-3.52-.09-5.8-.3-13.6-1.2-31.45-2.85-36.27-3.3A33.12,33.12,0,0,0,312,236l34.39-.39a1,1,0,0,0,1-.86c0-.13,1.89-13.16,4.66-28.5,2.43-13.39,5.86-16.33,12.88-18.76m.7-1.29c-7.86,2.56-11.91,5.21-14.56,19.87-2.81,15.54-4.67,28.54-4.67,28.54l-35.65.4s2.36,7.43-1.19,17.86c0,0,21.56,2,37.52,3.42,2.25.2,4.19.3,5.89.3,10.24,0,11.43-3.8,14-13.66,3-11.49,5.62-29.08,5.62-29.08l-7-27.65Z" style="fill:#e0e0e0"></path><path id="freepik--sphere-12--inject-14" d="M296.14,228c2.11.08,4.16,1.55,5.66,4.4,3,5.69,2.66,14.72-.76,20.17-1.72,2.72-3.88,4-6,4A14.28,14.28,0,0,1,296.14,228Z" style="fill:#37474f"></path><path d="M286.44,240.28c.59,0,.51,2.8-.08,2.79l-112.87-4.58Z" style="fill:#455a64"></path><path d="M288.15,231.23a6.31,6.31,0,0,0-1.92,1.93,3,3,0,0,0-.26,2.63,4.91,4.91,0,0,0,2,2,25,25,0,0,1,5.26,4.1,11.39,11.39,0,0,1,2.14,3.25c.53,1.25.54,2.63,1,3.89a2.57,2.57,0,0,0,1.6,1.63,2.24,2.24,0,0,0,1.94-.54,4.6,4.6,0,0,0,1.16-1.72,16.45,16.45,0,0,0,1.15-5.47,23.07,23.07,0,0,0-.26-6.32,12.17,12.17,0,0,0-2.68-5.67,5.1,5.1,0,0,0-4.22-1.83A13.11,13.11,0,0,0,288.15,231.23Z" style="fill:#455a64"></path><g id="freepik--Top--inject-14"><path d="M360.71,238.23a29.94,29.94,0,0,0-1.92-5.54c-1.92-4.33-3.81-8.12-4.28-12.95a48.9,48.9,0,0,1,.79-14.58c1.21-5.85,3.37-13.39,8.1-17.41,2.45-2.09,5.6-3.14,8.71-4a86.18,86.18,0,0,1,13.32-2.43,38.27,38.27,0,0,1,11.3.6,134,134,0,0,1,14.78,3.54c-1.84,6.87-1.94,9.55,1.06,18.43,1.64,4.87,8.89,8.87,8.89,8.87s-4.35,14-1.84,27.69c1.05,5.68,5.57,21.57,4.62,23.5-3.73,7.52-21.43,11.62-36.43,8.33-26.41-5.8-28.63-17.43-28.63-17.43a81.45,81.45,0,0,0,1.81-9A20.53,20.53,0,0,0,360.71,238.23Z" style="fill:#e0e0e0"></path><path d="M402.85,273.31A56.33,56.33,0,0,1,400,260.22a97.61,97.61,0,0,1,1-20.56c.47-3.44,1.11-6.85,1.84-10.24a52.73,52.73,0,0,0,1.44-9.76c.17-6.81-1-13.75-2.27-20.41a172.54,172.54,0,0,0-4.22-17.09l-2.29-.41c2.56,12.24,6.21,24.36,6.2,37a46.58,46.58,0,0,1-1.31,9.9c-.7,3.25-1.32,6.51-1.79,9.8a105.75,105.75,0,0,0-1.3,20.34,57.54,57.54,0,0,0,2.88,14.68C401.11,273.42,402,273.37,402.85,273.31Z" style="opacity:0.15"></path></g><path d="M381.08,131.48c6.31,1,11.67,4.61,14.12,12.88s.58,16.42-1.71,23.16S381.08,131.48,381.08,131.48Z" style="fill:#37474f"></path><path d="M395.4,179.3c-2.92.13-2.51-5.07-2.72-7.78s4.07-11.77.38-24.58c-3.07-10.62-9.65-16.46-17.84-16s-19.3,2.67-23.4,7.8-5.75,19.39-.91,31.69S365,184.05,370.3,182.26a10.77,10.77,0,0,1,.36,2.47c0,1.07-3.14.09-3.91,6.1-.72,5.68.7,14.56,9.07,11.21,6.95-2.77,19.82-9.13,23.4-19.6C399.7,178.66,395.4,179.3,395.4,179.3Z" style="fill:#f0f0f0"></path><path d="M375.24,186.24c1-1.18,1-2.76,2.2-3.81a13.85,13.85,0,0,1,2.65-1.58,23.46,23.46,0,0,0,6.21-4.76,17.28,17.28,0,0,0,3.28-6.41,4.6,4.6,0,0,0,.3-1.5.32.32,0,0,0-.1-.27c-.14-.08-.3.09-.37.24-.33.67-.61,1.36-1,2a14.55,14.55,0,0,1-4.13,4c-1.31,1-2.72,1.56-4.09,2.38a38.52,38.52,0,0,1-4.87,2.27q-2.29,1-4.66,1.81c-1.59.56-2.71.92-3.68,2.28a12.4,12.4,0,0,0,3.32-.62,10.77,10.77,0,0,1,.36,2.47c0,.52-.74.56-1.57,1.13-.09,1.67-.47,4.83-.47,5.21a6.83,6.83,0,0,0,1.25,4.38.63.63,0,0,0,.27.22.41.41,0,0,0,.45-.35,1.21,1.21,0,0,0-.1-.62c-.6-1.85-1.08-4.87.68-6.28C372.39,187.43,374.16,187.49,375.24,186.24Z" style="fill:#e0e0e0"></path><path d="M375.44,130.51A58.1,58.1,0,0,0,364,132.33l.15.43L378,141.91c8.21-1.95,12.53,1.77,13.91,6a48.64,48.64,0,0,1,1.58,19.62c1-5.09,2.3-12.68,0-20.73C390.4,136.17,383.64,130.07,375.44,130.51Z" style="fill:#455a64"></path><path d="M382,173.9c1.87-3.18,2.46-12.65,1-21.45-1.48-9.14-6.43-19.11-15.28-21-6.47,1.24-13,3.62-15.89,7.25-4.1,5.13-5.75,19.39-.91,31.69S365,184.05,370.3,182.26C376.9,180.66,379.44,178.18,382,173.9Z" style="fill:#37474f"></path><path d="M377.49,159.47c-1.5-14.39-7.64-27.38-19.86-24.91a16.05,16.05,0,0,0-5.81,4.17c-4.1,5.13-5.75,19.39-.91,31.69S365,184.05,370.3,182.26C376.21,178.55,378.77,171.75,377.49,159.47Z" style="fill:#455a64"></path><path d="M395.8,179.27l-.4,0c-1.15,0-1.78-.72-2.13-1.84a.94.94,0,0,0-.11.38,26.39,26.39,0,0,1-.72,3.95,16,16,0,0,1-1.08,2.73,20,20,0,0,1-3.14,4.45,41.52,41.52,0,0,1-6.35,5.48c-.14.32,2.89-1,3.79-1.6a34.13,34.13,0,0,0,5.52-4.5c1.93-2,3.88-4.59,4.42-7.35A10.26,10.26,0,0,0,395.8,179.27Z" style="fill:#e0e0e0"></path><path d="M379.36,324c.1-12-5.76-26.47-26-38.85-20.68-12.67-30.5-9.7-30.5-9.7a53.16,53.16,0,0,1,18.17-11c16.84.62,29.67,11.7,37,17.37,11.3,8.78,17.21,23.08,17.37,34.15Z" style="fill:#e0e0e0"></path><path d="M384.4,327.25c-2.13-1.23-3.35-3.91-3.35-7.35v-9.2c0-6,3.57-12.75,8.13-15.38l45.11-26.05c2.29-1.33,4.58-1.46,6.45-.39,2.13,1.23,3.36,3.91,3.36,7.35v9.2c0,6-3.58,12.76-8.14,15.39l-45.11,26a7.47,7.47,0,0,1-3.74,1.11A5.36,5.36,0,0,1,384.4,327.25Zm49.89-29.33c3.5-2,6.46-7.74,6.46-12.49v-9.2c0-2.18-.63-3.84-1.68-4.45a3.23,3.23,0,0,0-3.11.38l-45.11,26c-3.5,2-6.46,7.74-6.46,12.49v9.2c0,2.18.63,3.84,1.69,4.45a3.22,3.22,0,0,0,3.1-.38Z" style="fill:#455a64"></path><path d="M396.55,294.79l3.22-6a21.43,21.43,0,0,1,6.58-7.13L433,266.22l0,.07-3.15,5.9,2.95,1.58,3.15-5.9c1.25-2.33,1.34-4,.27-5.07-.67-.65-2-1.15-4.21.15l-27.34,15.79a24.35,24.35,0,0,0-7.85,8.44l-3.23,6Z" style="fill:#455a64"></path><g id="freepik--Arm--inject-14"><path d="M425.94,266.77a4.57,4.57,0,0,0,.88-.3,8,8,0,0,0,2.49-2.22c.48-.55,1.61-2.19,2.49-2,1.47.39.22,4,0,4.8a26.89,26.89,0,0,1-1.82,5.05c-.48,1.28-3.9,4.06-4.72,5.21s-.87,2.56-.31,3.15,1.86-.16,3.51-1.59a32.7,32.7,0,0,0,3.43-3c.64-.84,1.31-1.67,1.31-1.67a18.66,18.66,0,0,1-1.44,3.06c-.62.84-2.9,2.92-3.64,4a2.45,2.45,0,0,0,.08,2.77c.36.44.53,1.09,2.71-.86a33.57,33.57,0,0,0,3.05-3,3,3,0,0,0,3.06-.78,30.53,30.53,0,0,0,3.48-4.44,4.24,4.24,0,0,0,2.68-2c.94-1.67,2.2-4.35,3.14-6.51s.82-7.83,1.48-11.69c.2-1.19,5-23.47,6.58-30.21,1.55-6.47,2.48-9.77-2.05-14a111.08,111.08,0,0,0-20.36-15c-13.26-7.64-13.43-7.9-19.58-9.12-3.24,3.9-7.93,9.6,3.85,26.68C429.2,217,438,220.35,438,220.35s-3,30.49-3,31.07a5.54,5.54,0,0,1-2.77,3.82,16.91,16.91,0,0,0-4.84,4.47c-1.13,1.56-2.11,3.24-3.35,4.71a3.75,3.75,0,0,0-.72,1.06C422.71,267,425,267,425.94,266.77Z" style="fill:#ffa8a7"></path><path d="M433.31,280.7a20.18,20.18,0,0,0,3.22-4.39,23.93,23.93,0,0,0,2.1-5c-.76,1.64-1.53,3.27-2.42,4.84A41.25,41.25,0,0,1,433.31,280.7Z" style="fill:#f28f8f"></path><path d="M440.19,275.07a9.61,9.61,0,0,0,1.53-2.25,13.41,13.41,0,0,0,1-2.54c-.48.78-.86,1.59-1.29,2.38Z" style="fill:#f28f8f"></path><path d="M433.21,274.23c1.17-1.34,2.06-4.81,2.06-4.81s-.12,4.18-2.65,6.26Z" style="fill:#f28f8f"></path></g><path d="M418.62,217.11,436,223.79l-1.68,26.59a11.6,11.6,0,0,0,7.64,4.1c5.21.7,6.78-1.06,6.78-1.06S453.77,229,455,223.75s2.27-9.72-.39-13.36-8.95-7.44-19.29-13.63c-15.14-9.06-18-10.23-24.23-11.39,0,0-8.11,10.72.71,26.07A15.42,15.42,0,0,0,418.62,217.11Z" style="fill:#f5f5f5"></path><path d="M411.49,186.47c5.64,1.1,8.7,2.43,23.27,11.14,10.45,6.26,16.49,10,19,13.38,2.34,3.19,1.4,7.38.3,12.24l-.07.3c-1.09,4.82-5.55,26.32-6.17,29.34a6.66,6.66,0,0,1-3.58.78,15.42,15.42,0,0,1-2.17-.16,10.8,10.8,0,0,1-6.74-3.43L437,223.85a1,1,0,0,0-.64-1L419,216.17a14.49,14.49,0,0,1-6.35-5.23c-7.42-12.91-2.54-22.23-1.13-24.47m-.45-1.1s-8.11,10.72.71,26.07a15.42,15.42,0,0,0,6.87,5.67L436,223.79l-1.68,26.59a11.6,11.6,0,0,0,7.64,4.1,16.62,16.62,0,0,0,2.3.17c3.39,0,4.48-1.23,4.48-1.23S453.77,229,455,223.75s2.27-9.72-.39-13.36-8.95-7.44-19.29-13.63c-15.14-9.06-18-10.23-24.23-11.39Z" style="fill:#e0e0e0"></path><path d="M431.27,194.38c-3.31,1.76-5.27,8.38-5.27,8.38l7.06,4s1.63-5.85,4.93-8.4Z" style="fill:#455a64"></path><path d="M431.27,194.38A9.14,9.14,0,0,0,428,198l7,4a12.11,12.11,0,0,1,2.94-3.66Z" style="fill:#BA68C8"></path><path d="M386.62,357.81c0,12.57,4.4,21.4,11.54,25.51l3.8,2.2.14.08c7.14,4.12,17,3.52,27.86-2.76,21.76-12.55,39.41-43.11,39.41-68.23,0-12.58-4.42-21.39-11.54-25.51l-.32-.19-3.63-2.09c-7.13-4.13-17-3.53-27.87,2.75C404.25,302.14,386.62,332.68,386.62,357.81Zm8.17.34C395,335.58,411,308,430.4,296.48c9.7-5.74,18.44-6.37,24.74-2.74s10.12,11.53,10,22.8c-.23,22.58-16.17,50.19-35.61,61.67-9.7,5.76-18.46,6.37-24.74,2.74S394.67,369.44,394.79,358.15Z" style="fill:#37474f"></path><path d="M390.56,360.1c0,12.48,4.36,21.27,11.4,25.42l.14.08c7.14,4.12,17,3.52,27.86-2.76,21.76-12.55,39.41-43.11,39.41-68.23,0-12.58-4.42-21.39-11.54-25.51l-.32-.19c-7.11-3.92-16.84-3.25-27.55,2.94C408.21,304.42,390.56,335,390.56,360.1Zm4.23-2C395,335.58,411,308,430.4,296.48c9.7-5.74,18.44-6.37,24.74-2.74s10.12,11.53,10,22.8c-.23,22.58-16.17,50.19-35.61,61.67-9.7,5.76-18.46,6.37-24.74,2.74S394.67,369.44,394.79,358.15Z" style="fill:#455a64"></path><path d="M392.79,358.81a38.27,38.27,0,0,0,1.77,12.05l.05.12c1.8,5.49,4.95,9.52,9.06,11.89,6.74,3.9,16,3.33,26.29-2.6,20.53-11.84,37.18-40.68,37.18-64.39,0-11.84-4.16-20.18-10.9-24.06-4.24-2.45-9.52-3.13-15.41-1.82A39.62,39.62,0,0,0,430,294.42C409.44,306.28,392.79,335.1,392.79,358.81Zm10.74,21.33c-5.54-3.91-8.85-11.47-8.74-22C395,335.58,411,308,430.4,296.48c9-5.29,17.07-6.25,23.21-3.51a14.59,14.59,0,0,1,1.53.77c6.29,3.63,10.12,11.53,10,22.8-.23,22.58-16.17,50.19-35.61,61.67-9.7,5.76-18.46,6.37-24.74,2.74C404.36,380.7,404,380.43,403.53,380.14Z" style="fill:#BA68C8"></path><path d="M403.53,380.14c.42.29.83.56,1.26.81,6.28,3.63,15,3,24.74-2.74,19.44-11.48,35.38-39.09,35.61-61.67.12-11.27-3.71-19.17-10-22.8a14.59,14.59,0,0,0-1.53-.77c5.51,3.93,8.79,11.48,8.68,22-.23,22.57-16.17,50.17-35.6,61.67C417.78,381.86,409.67,382.83,403.53,380.14Z" style="fill:#BA68C8"></path><path d="M403.53,380.14c.42.29.83.56,1.26.81,6.28,3.63,15,3,24.74-2.74,19.44-11.48,35.38-39.09,35.61-61.67.12-11.27-3.71-19.17-10-22.8a14.59,14.59,0,0,0-1.53-.77c5.51,3.93,8.79,11.48,8.68,22-.23,22.57-16.17,50.17-35.6,61.67C417.78,381.86,409.67,382.83,403.53,380.14Z" style="opacity:0.2"></path><path d="M428.33,335.61l-.65.95-31.13,8.33-.24,1.09,30.69-8.2-.48,1.43-31,27.47c.09.37.18.73.28,1.09l30.62-27.16.42,1.07-22.44,39c.28.18.56.36.85.52l22.45-39,1.14-.17-8.15,39c.35-.09.72-.23,1.09-.34L430,341.24l1-1.14,7.59,28.3c.28-.24.55-.5.83-.75l-7.7-28.75.49-1,21.19,12.23.48-.87L432.74,337l.64-.94,28.48-7.63.21-1.09-28,7.5.48-1.43,28.52-25.28c-.1-.36-.2-.71-.31-1.06L434.63,332l-.42-1.07,21.28-36.84c-.28-.17-.58-.33-.87-.49l-21.28,36.84-1.13.16,7.84-38.28c-.36.09-.72.18-1.08.29L431,331.38l-1,1.14-8-29.93-.83.74,8.14,30.39-.49,1-22.58-13-.51.86Z" style="fill:#ebebeb"></path><path d="M397,361.19a37.92,37.92,0,0,0,1.77,12s0,.08,0,.13c1.8,5.49,5,9.52,9.07,11.89,6.73,3.89,16,3.32,26.29-2.6,20.53-11.85,37.17-40.68,37.17-64.39,0-11.85-4.15-20.19-10.89-24.07-4.25-2.44-9.52-3.12-15.42-1.81a39.52,39.52,0,0,0-10.86,4.41C413.62,308.66,397,337.48,397,361.19Zm10.74,21.32c-5.54-3.91-8.85-11.46-8.74-22,.23-22.57,16.17-50.17,35.6-61.66,9-5.3,17.08-6.25,23.22-3.51a12.75,12.75,0,0,1,1.52.77c6.3,3.63,10.13,11.52,10,22.8-.23,22.57-16.17,50.19-35.6,61.67C424,386.34,415.26,387,409,383.33,408.55,383.08,408.13,382.8,407.72,382.51Z" style="fill:#e6e6e6"></path><path d="M397,361.19a37.92,37.92,0,0,0,1.77,12s0,.08,0,.13c1.8,5.49,5,9.52,9.07,11.89,6.73,3.89,16,3.32,26.29-2.6,20.53-11.85,37.17-40.68,37.17-64.39,0-11.85-4.15-20.19-10.89-24.07-4.25-2.44-9.52-3.12-15.42-1.81a39.52,39.52,0,0,0-10.86,4.41C413.62,308.66,397,337.48,397,361.19Zm10.74,21.32c-5.54-3.91-8.85-11.46-8.74-22,.23-22.57,16.17-50.17,35.6-61.66,9-5.3,17.08-6.25,23.22-3.51a12.75,12.75,0,0,1,1.52.77c6.3,3.63,10.13,11.52,10,22.8-.23,22.57-16.17,50.19-35.6,61.67C424,386.34,415.26,387,409,383.33,408.55,383.08,408.13,382.8,407.72,382.51Z" style="opacity:0.2"></path><path d="M422.86,340.29c0,2.13.74,3.64,1.93,4.36.38.22.67.36,1,.56a3.55,3.55,0,0,0,2.22.52h0l.49-.08.15,0,.39-.1.27-.08.28-.11.4-.16.7-.36a15.08,15.08,0,0,0,6.81-11.8,6.06,6.06,0,0,0,0-.75,1.9,1.9,0,0,0,0-.25c0-.15,0-.31-.06-.45s0-.19-.07-.29l-.09-.34a2.83,2.83,0,0,0-.11-.31,2.6,2.6,0,0,0-.1-.25l-.15-.32a1.62,1.62,0,0,1-.1-.18l-.21-.31a.58.58,0,0,0-.1-.12,2.55,2.55,0,0,0-.26-.3l-.08-.07a3,3,0,0,0-.33-.28h0l0,0-.26-.17c-.33-.2-.65-.34-.9-.5-1.24-.78-3-.71-4.91.41A15,15,0,0,0,422.86,340.29Zm8.54,1.42c-.56-1.09-.67-3.25,0-4.07s.68.38,2.45-.53c.43-.23.83-.49,1.19-.73a16.57,16.57,0,0,1-3.45,5.2A.8.8,0,0,1,431.4,341.71Zm-4.09-8.39a.64.64,0,0,1,.07-.19,11.38,11.38,0,0,1,4.45-3.46,9.5,9.5,0,0,1-1.81,5.09,1.36,1.36,0,0,0-.52-.52l-1.05-.59a1.11,1.11,0,0,0-.29-.13A4,4,0,0,0,427.31,333.32Zm7-3.92a5.13,5.13,0,0,1,1.18,3.45c-.15,1.29-2.32,2.59-3.66,2.81.05-.67.92-1,1.49-3C433.79,330.93,433.76,329.65,434.32,329.4Zm-8.14,14.37-.07-.09c-.54-.86,1.55-3.74,2.95-4.84a3.59,3.59,0,0,0,0,2c.36,1.34,1.15,2,.44,2.62A4.52,4.52,0,0,1,426.18,343.77ZM424.8,341a12.9,12.9,0,0,1,1.15-5.08,1.77,1.77,0,0,1,2.15-.72,1.37,1.37,0,0,1,.48,1.42c-.36,1.06-.94.38-2.42,2.35C425.59,339.68,425.15,340.43,424.8,341Z" style="fill:#e0e0e0"></path><path d="M422.86,340.29c0,2.13.74,3.64,1.93,4.36.38.22.67.36,1,.56a3.55,3.55,0,0,0,2.22.52h0l.49-.08.15,0,.39-.1.27-.08.28-.11.4-.16.7-.36a15.08,15.08,0,0,0,6.81-11.8,6.06,6.06,0,0,0,0-.75,1.9,1.9,0,0,0,0-.25c0-.15,0-.31-.06-.45s0-.19-.07-.29l-.09-.34a2.83,2.83,0,0,0-.11-.31,2.6,2.6,0,0,0-.1-.25l-.15-.32a1.62,1.62,0,0,1-.1-.18l-.21-.31a.58.58,0,0,0-.1-.12,2.55,2.55,0,0,0-.26-.3l-.08-.07a3,3,0,0,0-.33-.28h0l0,0-.26-.17c-.33-.2-.65-.34-.9-.5-1.24-.78-3-.71-4.91.41A15,15,0,0,0,422.86,340.29Zm8.54,1.42c-.56-1.09-.67-3.25,0-4.07s.68.38,2.45-.53c.43-.23.83-.49,1.19-.73a16.57,16.57,0,0,1-3.45,5.2A.8.8,0,0,1,431.4,341.71Zm-4.09-8.39a.64.64,0,0,1,.07-.19,11.38,11.38,0,0,1,4.45-3.46,9.5,9.5,0,0,1-1.81,5.09,1.36,1.36,0,0,0-.52-.52l-1.05-.59a1.11,1.11,0,0,0-.29-.13A4,4,0,0,0,427.31,333.32Zm7-3.92a5.13,5.13,0,0,1,1.18,3.45c-.15,1.29-2.32,2.59-3.66,2.81.05-.67.92-1,1.49-3C433.79,330.93,433.76,329.65,434.32,329.4Zm-8.14,14.37-.07-.09c-.54-.86,1.55-3.74,2.95-4.84a3.59,3.59,0,0,0,0,2c.36,1.34,1.15,2,.44,2.62A4.52,4.52,0,0,1,426.18,343.77ZM424.8,341a12.9,12.9,0,0,1,1.15-5.08,1.77,1.77,0,0,1,2.15-.72,1.37,1.37,0,0,1,.48,1.42c-.36,1.06-.94.38-2.42,2.35C425.59,339.68,425.15,340.43,424.8,341Z" style="opacity:0.2"></path><path d="M423.92,340.88c0,4.34,3,6.1,6.8,3.94a15.08,15.08,0,0,0,6.81-11.8c0-4.34-3-6.1-6.81-3.93A15,15,0,0,0,423.92,340.88Zm6.82-5.29c-.81.34-.16-1-1.54-1.48-1.08-.39-2.27,0-1.82-1s3.68-3.56,5-3.58S431.92,335.1,430.74,335.59Zm5.8-2.15c-.2,1.83-4.49,3.69-4.69,2.44-.14-.85.85-1,1.48-3.26.49-1.8.41-3.15,1.1-3.27S436.75,331.61,436.54,333.44Zm-5.12,4.2c.72-.86.68.38,2.45-.53,1.39-.72,2.52-1.91,2.51-1.05s-2.25,5-3.72,6.11S430.36,338.9,431.42,337.64Zm-1.38.8c.59.31-.42,1.23,0,2.93.36,1.35,1.15,2,.44,2.63s-3.71.8-4.41-.32S429.19,338,430,338.44ZM425,342.19c-.42-.46,0-4.47,1-6.31s4.2-.25,3.67,1.29c-.36,1.05-.95.38-2.43,2.35C426,341.07,425.38,342.65,425,342.19Z" style="fill:#e0e0e0"></path><path d="M430.53,338c-.59.35-1.08.07-1.08-.62a2.41,2.41,0,0,1,1.08-1.88c.6-.35,1.09-.07,1.09.62A2.38,2.38,0,0,1,430.53,338Z" style="fill:#455a64"></path></g></g><g id="freepik--character-1--inject-14"><g id="freepik--character--inject-14"><path d="M146,249.47c-10.88-6.28-20.74-6.88-27.87-2.75l-3.63,2.09-.32.18c-7.13,4.13-11.54,12.94-11.54,25.52,0,25.12,17.65,55.68,39.4,68.23C153,349,162.81,349.62,170,345.5l.14-.08,3.8-2.2c7.14-4.11,11.54-12.94,11.54-25.51C185.43,292.58,167.79,262,146,249.47Zm21.21,91.38c-6.27,3.63-15,3-24.74-2.74-19.43-11.48-35.37-39.09-35.6-61.67-.12-11.27,3.71-19.17,10-22.8s15-3,24.74,2.74c19.43,11.49,35.38,39.1,35.61,61.67C177.38,329.34,173.55,337.22,167.25,340.85Z" style="fill:#37474f"></path><path d="M142.08,251.75c-10.71-6.19-20.43-6.86-27.54-2.94l-.32.18c-7.13,4.13-11.54,12.94-11.54,25.52,0,25.12,17.65,55.68,39.4,68.23C153,349,162.81,349.62,170,345.5l.14-.08c7-4.15,11.4-12.94,11.4-25.42C181.49,294.86,163.84,264.32,142.08,251.75Zm25.17,89.1c-6.27,3.63-15,3-24.74-2.74-19.43-11.48-35.37-39.09-35.6-61.67-.12-11.27,3.71-19.17,10-22.8s15-3,24.74,2.74c19.43,11.49,35.38,39.1,35.61,61.67C177.38,329.34,173.55,337.22,167.25,340.85Z" style="fill:#455a64"></path><path d="M142.08,254.32a39.45,39.45,0,0,0-10.86-4.42c-5.89-1.31-11.17-.63-15.42,1.82-6.74,3.88-10.89,12.21-10.89,24.06,0,23.71,16.65,52.55,37.17,64.39,10.27,5.93,19.56,6.5,26.3,2.6,4.11-2.37,7.26-6.4,9.06-11.89l.05-.12a38.27,38.27,0,0,0,1.77-12.05C179.26,295,162.61,266.18,142.08,254.32Zm25.17,86.53c-6.27,3.63-15,3-24.74-2.74-19.43-11.48-35.37-39.09-35.6-61.67-.12-11.27,3.71-19.17,10-22.8a14.44,14.44,0,0,1,1.52-.77c6.14-2.74,14.27-1.78,23.22,3.51,19.43,11.49,35.38,39.1,35.61,61.67.1,10.52-3.2,18.08-8.74,22C168.1,340.33,167.69,340.6,167.25,340.85Z" style="fill:#BA68C8"></path><path d="M168.52,340c-.42.29-.83.56-1.27.81-6.27,3.63-15,3-24.74-2.74-19.43-11.48-35.37-39.09-35.6-61.67-.12-11.27,3.71-19.17,10-22.8a14.44,14.44,0,0,1,1.52-.77c-5.5,3.93-8.78,11.48-8.67,22,.23,22.57,16.17,50.17,35.6,61.67C154.27,341.76,162.38,342.73,168.52,340Z" style="fill:#BA68C8"></path><path d="M168.52,340c-.42.29-.83.56-1.27.81-6.27,3.63-15,3-24.74-2.74-19.43-11.48-35.37-39.09-35.6-61.67-.12-11.27,3.71-19.17,10-22.8a14.44,14.44,0,0,1,1.52-.77c-5.5,3.93-8.78,11.48-8.67,22,.23,22.57,16.17,50.17,35.6,61.67C154.27,341.76,162.38,342.73,168.52,340Z" style="opacity:0.2"></path><path d="M143.72,295.51l.64.95,31.14,8.33.24,1.09-30.69-8.2.48,1.43,31,27.47c-.08.37-.17.73-.27,1.09l-30.62-27.16-.42,1.07,22.44,39c-.28.18-.56.36-.85.52l-22.46-39-1.13-.17,8.15,39c-.36-.09-.73-.23-1.09-.34L142,301.14,141,300l-7.59,28.3c-.28-.24-.55-.5-.83-.75l7.7-28.75-.49-1L118.62,310c-.16-.28-.32-.58-.49-.87l21.18-12.22-.65-.94-28.47-7.63-.21-1.09,28,7.5-.48-1.43L109,268c.09-.36.2-.71.31-1.06l28.13,24.93.42-1.07L116.56,254c.28-.18.57-.33.87-.49l21.27,36.84,1.14.16L132,252.23c.36.09.71.18,1.08.29L141,291.28l1,1.14,8-29.93.84.74-8.14,30.39.49,1,22.58-13,.51.86Z" style="fill:#ebebeb"></path><path d="M137.9,256.69A39.52,39.52,0,0,0,127,252.28c-5.9-1.31-11.18-.63-15.42,1.81-6.74,3.88-10.9,12.22-10.9,24.07,0,23.71,16.65,52.54,37.18,64.39,10.26,5.92,19.55,6.49,26.29,2.6,4.11-2.37,7.27-6.4,9.07-11.89,0-.05,0-.08,0-.13a37.92,37.92,0,0,0,1.77-12C175.07,297.37,158.42,268.56,137.9,256.69Zm25.17,86.54c-6.28,3.63-15,3-24.74-2.74C118.9,329,103,301.39,102.72,278.82c-.12-11.28,3.71-19.17,10-22.8a12.75,12.75,0,0,1,1.52-.77c6.14-2.74,14.26-1.79,23.22,3.51,19.43,11.49,35.37,39.09,35.6,61.66.11,10.53-3.2,18.08-8.74,22C163.92,342.7,163.5,343,163.07,343.23Z" style="fill:#e6e6e6"></path><path d="M137.9,256.69A39.52,39.52,0,0,0,127,252.28c-5.9-1.31-11.18-.63-15.42,1.81-6.74,3.88-10.9,12.22-10.9,24.07,0,23.71,16.65,52.54,37.18,64.39,10.26,5.92,19.55,6.49,26.29,2.6,4.11-2.37,7.27-6.4,9.07-11.89,0-.05,0-.08,0-.13a37.92,37.92,0,0,0,1.77-12C175.07,297.37,158.42,268.56,137.9,256.69Zm25.17,86.54c-6.28,3.63-15,3-24.74-2.74C118.9,329,103,301.39,102.72,278.82c-.12-11.28,3.71-19.17,10-22.8a12.75,12.75,0,0,1,1.52-.77c6.14-2.74,14.26-1.79,23.22,3.51,19.43,11.49,35.37,39.09,35.6,61.66.11,10.53-3.2,18.08-8.74,22C163.92,342.7,163.5,343,163.07,343.23Z" style="opacity:0.2"></path><path d="M142.38,288.4c-1.93-1.12-3.67-1.19-4.91-.41-.26.16-.57.3-.9.5l-.26.17-.05,0h0l-.34.28-.07.07q-.14.13-.27.3a1.25,1.25,0,0,0-.09.12l-.21.31-.1.18a3.13,3.13,0,0,0-.15.32,2.6,2.6,0,0,0-.1.25,2.83,2.83,0,0,0-.11.31,3.37,3.37,0,0,0-.09.34c0,.1-.05.19-.07.29s0,.3-.06.45,0,.16,0,.25,0,.49,0,.75a15,15,0,0,0,6.81,11.79,7.88,7.88,0,0,0,.7.37l.4.16.28.11.27.07.39.11.15,0,.49.08h0a3.58,3.58,0,0,0,2.22-.52c.33-.2.62-.34,1-.56,1.19-.72,1.93-2.23,1.93-4.36A15,15,0,0,0,142.38,288.4Zm-1.94,13.08a16.57,16.57,0,0,1-3.45-5.2,12.9,12.9,0,0,0,1.19.73c1.77.91,1.72-.33,2.45.53s.58,3,0,4.07A1,1,0,0,1,140.44,301.48Zm3.45-8.07a1.57,1.57,0,0,0-.29.14l-1,.59a1.36,1.36,0,0,0-.52.52,9.5,9.5,0,0,1-1.81-5.09,11.46,11.46,0,0,1,4.45,3.46,1.14,1.14,0,0,1,.07.19A4.67,4.67,0,0,0,143.89,293.41Zm-5.17-.89c.57,2.05,1.43,2.37,1.49,3-1.34-.22-3.52-1.52-3.66-2.81a5.17,5.17,0,0,1,1.17-3.45C138.29,289.55,138.25,290.83,138.72,292.52Zm3.85,10.79c-.71-.65.08-1.28.44-2.62a3.59,3.59,0,0,0,0-1.95c1.39,1.1,3.49,4,2.95,4.84l-.07.09A4.52,4.52,0,0,1,142.57,303.31Zm3.32-4.48c-1.48-2-2.06-1.29-2.42-2.35a1.37,1.37,0,0,1,.48-1.42,1.75,1.75,0,0,1,2.14.72,12.74,12.74,0,0,1,1.16,5.08C146.9,300.33,146.46,299.58,145.89,298.83Z" style="fill:#e0e0e0"></path><path d="M142.38,288.4c-1.93-1.12-3.67-1.19-4.91-.41-.26.16-.57.3-.9.5l-.26.17-.05,0h0l-.34.28-.07.07q-.14.13-.27.3a1.25,1.25,0,0,0-.09.12l-.21.31-.1.18a3.13,3.13,0,0,0-.15.32,2.6,2.6,0,0,0-.1.25,2.83,2.83,0,0,0-.11.31,3.37,3.37,0,0,0-.09.34c0,.1-.05.19-.07.29s0,.3-.06.45,0,.16,0,.25,0,.49,0,.75a15,15,0,0,0,6.81,11.79,7.88,7.88,0,0,0,.7.37l.4.16.28.11.27.07.39.11.15,0,.49.08h0a3.58,3.58,0,0,0,2.22-.52c.33-.2.62-.34,1-.56,1.19-.72,1.93-2.23,1.93-4.36A15,15,0,0,0,142.38,288.4Zm-1.94,13.08a16.57,16.57,0,0,1-3.45-5.2,12.9,12.9,0,0,0,1.19.73c1.77.91,1.72-.33,2.45.53s.58,3,0,4.07A1,1,0,0,1,140.44,301.48Zm3.45-8.07a1.57,1.57,0,0,0-.29.14l-1,.59a1.36,1.36,0,0,0-.52.52,9.5,9.5,0,0,1-1.81-5.09,11.46,11.46,0,0,1,4.45,3.46,1.14,1.14,0,0,1,.07.19A4.67,4.67,0,0,0,143.89,293.41Zm-5.17-.89c.57,2.05,1.43,2.37,1.49,3-1.34-.22-3.52-1.52-3.66-2.81a5.17,5.17,0,0,1,1.17-3.45C138.29,289.55,138.25,290.83,138.72,292.52Zm3.85,10.79c-.71-.65.08-1.28.44-2.62a3.59,3.59,0,0,0,0-1.95c1.39,1.1,3.49,4,2.95,4.84l-.07.09A4.52,4.52,0,0,1,142.57,303.31Zm3.32-4.48c-1.48-2-2.06-1.29-2.42-2.35a1.37,1.37,0,0,1,.48-1.42,1.75,1.75,0,0,1,2.14.72,12.74,12.74,0,0,1,1.16,5.08C146.9,300.33,146.46,299.58,145.89,298.83Z" style="opacity:0.2"></path><path d="M141.33,289c-3.76-2.17-6.81-.41-6.81,3.93a15,15,0,0,0,6.81,11.79c3.76,2.17,6.8.41,6.8-3.93A15,15,0,0,0,141.33,289Zm-1.69.46c1.35,0,4.58,2.65,5,3.58s-.74.59-1.82,1c-1.38.48-.73,1.82-1.54,1.48C140.13,295,138.3,289.43,139.64,289.45Zm-2-.2c.7.11.61,1.47,1.11,3.27.63,2.27,1.62,2.41,1.48,3.26-.21,1.25-4.49-.61-4.7-2.44S136.92,289.12,137.61,289.25Zm1.78,12.82c-1.47-1.15-3.7-5.25-3.72-6.11s1.12.33,2.51,1.05c1.77.91,1.72-.33,2.45.53C141.69,298.8,140.87,303.22,139.39,302.07Zm6.55,1.51c-.71,1.12-3.71,1-4.42.32s.09-1.28.45-2.63c.46-1.7-.55-2.62,0-2.93C142.86,297.87,146.64,302.46,145.94,303.58Zm-1.09-4.16c-1.48-2-2.06-1.3-2.42-2.35-.53-1.54,2.63-3.12,3.66-1.29s1.42,5.85,1,6.31S146,301,144.85,299.42Z" style="fill:#e0e0e0"></path><path d="M141.51,297.94c.6.35,1.09.07,1.09-.62a2.4,2.4,0,0,0-1.09-1.88c-.6-.35-1.08-.07-1.08.62A2.37,2.37,0,0,0,141.51,297.94Z" style="fill:#455a64"></path><path d="M71,334.91a1.06,1.06,0,0,0-.45,1A3.35,3.35,0,0,0,72,338.52a1.06,1.06,0,0,0,1.07.11l69.47-40.05a1.07,1.07,0,0,0,.45-1A3.34,3.34,0,0,0,141.5,295a1,1,0,0,0-1.07-.11Z" style="fill:#263238"></path><path d="M72,338.52a.93.93,0,0,0,1.52-.87A3.35,3.35,0,0,0,72,335a.93.93,0,0,0-1.52.87A3.35,3.35,0,0,0,72,338.52Z" style="fill:#455a64"></path><path d="M196.63,330.33c-4.11,7.78-2.78,17.69-2.63,21.07s-1.55,2.72-2.5,0-3.49-13.83.81-23.53Z" style="fill:#ebebeb"></path><path d="M204.51,354.51c0-6.25-4.39-13.86-9.81-17-2.84-1.64-5.39-1.71-7.18-.51h0l-4.18,2.36,14.06,23.89,4.13-2.35v0C203.36,359.91,204.51,357.7,204.51,354.51Z" style="fill:#455a64"></path><path d="M190.27,340.07c5.41,3.12,9.8,10.73,9.8,17s-4.39,8.79-9.8,5.66-9.81-10.73-9.81-17S184.85,336.94,190.27,340.07Z" style="fill:#263238"></path><path d="M190.27,347.4a7.62,7.62,0,0,1,3.45,6c0,2.2-1.54,3.09-3.45,2a7.61,7.61,0,0,1-3.45-6C186.82,347.19,188.36,346.3,190.27,347.4Z"></path><path d="M193.72,330c-4.11,7.78-2.78,17.68-2.63,21.07s-1.54,2.72-2.5,0-3.49-13.83.81-23.53Z" style="fill:#fafafa"></path><path d="M227.14,369.53l-11.77-24.81h0L198,308.81a30.19,30.19,0,0,0-11.3-12.7v3.5a27.46,27.46,0,0,1,8.68,10.45l15.39,31.77L155,296.56v3.34l58,46.5,11.55,24.38a1.46,1.46,0,0,0,1.31.83,1.6,1.6,0,0,0,.63-.14A1.47,1.47,0,0,0,227.14,369.53Z" style="fill:#e0e0e0"></path><path d="M227.14,369.53l-11.77-24.81h0L198,308.81a30.19,30.19,0,0,0-11.3-12.7v3.5a27.46,27.46,0,0,1,8.68,10.45l15.39,31.77L155,296.56v3.34l58,46.5,11.55,24.38a1.46,1.46,0,0,0,1.31.83,1.6,1.6,0,0,0,.63-.14A1.47,1.47,0,0,0,227.14,369.53Z" style="opacity:0.2"></path><polygon points="173.71 410.37 154.03 399.01 216.99 362.65 236.68 374.01 173.71 410.37" style="fill:#BA68C8"></polygon><polygon points="154.03 399.01 154.03 403.55 173.71 414.91 173.71 410.37 154.03 399.01" style="fill:#BA68C8"></polygon><polygon points="154.03 399.01 154.03 403.55 173.71 414.91 173.71 410.37 154.03 399.01" style="opacity:0.30000000000000004"></polygon><polygon points="236.68 374.01 236.68 378.56 173.71 414.91 173.71 410.37 236.68 374.01" style="fill:#BA68C8"></polygon><polygon points="236.68 374.01 236.68 378.56 173.71 414.91 173.71 410.37 236.68 374.01" style="opacity:0.15"></polygon><path d="M130.83,365.74c-4.11,7.78-2.77,17.69-2.63,21.07s-1.54,2.72-2.5,0-3.49-13.83.81-23.53Z" style="fill:#e0e0e0"></path><path d="M138.71,389.92c0-6.25-4.39-13.85-9.8-17-2.84-1.64-5.39-1.71-7.18-.51h0l-4.18,2.36,14.06,23.89,4.12-2.35v0C137.56,395.32,138.71,393.11,138.71,389.92Z" style="fill:#455a64"></path><path d="M124.48,375.48c5.41,3.12,9.8,10.73,9.8,17s-4.39,8.79-9.8,5.66-9.81-10.73-9.81-17S119.06,372.35,124.48,375.48Z" style="fill:#37474f"></path><path d="M124.48,382.81a7.65,7.65,0,0,1,3.45,6c0,2.2-1.55,3.1-3.45,2a7.61,7.61,0,0,1-3.46-6C121,382.6,122.57,381.71,124.48,382.81Z" style="fill:#263238"></path><path d="M127.93,365.42c-4.11,7.78-2.78,17.69-2.63,21.07s-1.55,2.72-2.5,0-3.49-13.83.81-23.53Z" style="fill:#f5f5f5"></path><path d="M114.36,328.7a1.46,1.46,0,0,1,2-.53l1.24.72a30.25,30.25,0,0,1,12.28,13.32l17.35,35.9h0L159,402.93a1.47,1.47,0,0,1-.69,1.94,1.6,1.6,0,0,1-.63.14,1.46,1.46,0,0,1-1.31-.83L144.81,379.8,83.55,331.43A1.46,1.46,0,0,1,85,328.9l57.65,46.33-15.39-31.77a27.35,27.35,0,0,0-11.12-12l-1.24-.72A1.46,1.46,0,0,1,114.36,328.7Z" style="fill:#e0e0e0"></path><path d="M114.36,328.7a1.46,1.46,0,0,1,2-.53l1.24.72a30.25,30.25,0,0,1,12.28,13.32l17.35,35.9h0L159,402.93a1.47,1.47,0,0,1-.69,1.94,1.6,1.6,0,0,1-.63.14,1.46,1.46,0,0,1-1.31-.83L144.81,379.8,83.55,331.43A1.46,1.46,0,0,1,85,328.9l57.65,46.33-15.39-31.77a27.35,27.35,0,0,0-11.12-12l-1.24-.72A1.46,1.46,0,0,1,114.36,328.7Z" style="opacity:0.2"></path><path d="M55.57,233.25l3.79-6.54-16-9.25h0a1.89,1.89,0,0,0-1.92.17,5.9,5.9,0,0,0-2.67,4.63,1.88,1.88,0,0,0,.74,1.7h0l0,0h0Z" style="fill:#455a64"></path><path d="M54.79,231.53c0,1.7,1.2,2.39,2.68,1.54a5.93,5.93,0,0,0,2.67-4.63c0-1.71-1.2-2.4-2.67-1.55A5.93,5.93,0,0,0,54.79,231.53Z" style="fill:#37474f"></path><path d="M57.61,228.4a1,1,0,0,1,.79-.13l.22.13,11.17,6.45-3.56,2.05-9.3-5.37-.41-.22a1.08,1.08,0,0,1-.2-.68A2.87,2.87,0,0,1,57.61,228.4Z" style="fill:#e0e0e0"></path><path d="M102.62,206.07l3.79-6.54-16-9.25h0a1.84,1.84,0,0,0-1.92.17,5.9,5.9,0,0,0-2.67,4.63,1.87,1.87,0,0,0,.75,1.7h0l0,0h0Z" style="fill:#455a64"></path><path d="M101.84,204.35c0,1.7,1.2,2.39,2.68,1.54a5.93,5.93,0,0,0,2.67-4.63c0-1.71-1.2-2.4-2.67-1.55A5.93,5.93,0,0,0,101.84,204.35Z" style="fill:#37474f"></path><path d="M104.66,201.22a1,1,0,0,1,.79-.13l.22.13,11.17,6.45-3.56,2.05-9.3-5.37-.41-.22a1.08,1.08,0,0,1-.2-.68A2.87,2.87,0,0,1,104.66,201.22Z" style="fill:#e0e0e0"></path><path d="M125.94,338,69.51,305.4A7.89,7.89,0,0,1,66,299.22V295.9a7.88,7.88,0,0,1,3.56-6.18l56.43-32.58a7.92,7.92,0,0,1,7.13,0l56.42,32.58a7.89,7.89,0,0,1,3.57,6.18v3.37a7.88,7.88,0,0,1-3.57,6.17L133.07,338A7.86,7.86,0,0,1,125.94,338Z" style="fill:#BA68C8"></path><path d="M127,338.45a5.44,5.44,0,0,1-1-.45L69.51,305.4A7.89,7.89,0,0,1,66,299.22v-3.33a8,8,0,0,1,2.89-5.7c-1.26,1.14-1,2.66.67,3.64l56.16,32.43Z" style="opacity:0.30000000000000004"></path><path d="M193.06,295.89v3.37a7.89,7.89,0,0,1-3.57,6.18L133.07,338a7.94,7.94,0,0,1-6.09.44l-1.31-12.18.27.15a7.86,7.86,0,0,0,7.13,0l56.42-32.58c1.72-1,1.94-2.51.67-3.64A8,8,0,0,1,193.06,295.89Z" style="opacity:0.15"></path><path d="M138,266.59,81.61,299.16a7.36,7.36,0,0,1-4.17.83c-.21,0-.43,0-.63-.07l-.13,0-.37-.07h0l-.56-.14a5.82,5.82,0,0,1-1.22-.52l-2.9-1.67a10.05,10.05,0,0,1-4.29-6.11l-8.58-47.9a5.35,5.35,0,0,1-.08-.89c0-.12,0-.24,0-.35a6.59,6.59,0,0,1,2.27-4.45l.25-.18.37-.25L118,204.79a7.86,7.86,0,0,1,7.13,0l2.9,1.67a7.84,7.84,0,0,1,1.72,1.4c.1.1.19.21.28.31a10,10,0,0,1,1,1.41,2.14,2.14,0,0,1,.2.32,2.69,2.69,0,0,1,.16.29c.08.14.15.27.22.42a3.17,3.17,0,0,1,.19.42l.15.35.06.17c0,.11.07.21.1.32s.08.27.11.41.05.19.07.29l8.58,47.91A6.29,6.29,0,0,1,138,266.59Z" style="fill:#BA68C8"></path><path d="M68.74,249.27l8.58,47.9a2.71,2.71,0,0,0,4.3,2L138,266.59a6.28,6.28,0,0,0,2.84-6.11l-8.58-47.9a2.71,2.71,0,0,0-4.29-2L71.58,243.16A6.28,6.28,0,0,0,68.74,249.27Z" style="fill:#BA68C8"></path><path d="M68.74,249.27l8.58,47.9a2.71,2.71,0,0,0,4.3,2L138,266.59a6.28,6.28,0,0,0,2.84-6.11l-8.58-47.9a2.71,2.71,0,0,0-4.29-2L71.58,243.16A6.28,6.28,0,0,0,68.74,249.27Z" style="opacity:0.15"></path><path d="M80.16,299.74a8.53,8.53,0,0,1-2.72.25c-.21,0-.43,0-.63-.07a4,4,0,0,1-.5-.09h0l-.56-.14a5.82,5.82,0,0,1-1.22-.52l-2.9-1.67a10.05,10.05,0,0,1-4.29-6.11l-8.58-47.9a5.35,5.35,0,0,1-.08-.89c0-.12,0-.24,0-.35a6.25,6.25,0,0,1,.39-1.75l10.06,5.72a5.72,5.72,0,0,0-.36,3.06l8.58,47.9a2.66,2.66,0,0,0,2.83,2.48A.28.28,0,0,0,80.16,299.74Z" style="opacity:0.30000000000000004"></path><path d="M177.74,334.29a10.14,10.14,0,0,0,1.55.75,12.07,12.07,0,0,0,10.83-1.37,14.76,14.76,0,0,0,6.07-9.24,31.49,31.49,0,0,0,.51-6.29c.07-5.75.37-11.58-.39-17.25-1.29-9.49-7.83-20.07-21.42-28.54s-37.58-20.43-37.58-20.43L79.63,263.34v.9c-.7,7.75-1.34,26.86,11.07,35.67s44.87,21.2,48.25,22.75c3,1.37,3.23,5.2,4.66,7.78a12.71,12.71,0,0,0,8.11,5.85c6.47,1.6,14.22-1.17,17.16-7.35a16.11,16.11,0,0,0,1.66-8.09c-.28-2.92-.56-8.55-1.28-11.39,1.07,4.21,2,10.92,3.07,15.13C173.34,328.57,174.2,332.21,177.74,334.29Z" style="fill:#fafafa"></path><path d="M137.17,253c2.83,1.43,24.63,12.41,37.2,20.24,12.1,7.54,19.54,17.42,20.95,27.82a93.79,93.79,0,0,1,.43,14c0,1,0,2.05-.05,3.08a31.06,31.06,0,0,1-.48,6.1,13.82,13.82,0,0,1-5.65,8.61,11.5,11.5,0,0,1-6.31,1.92,9.89,9.89,0,0,1-3.61-.66,9.66,9.66,0,0,1-1.41-.67c-3.11-1.84-3.93-5.09-4.88-8.87l-.06-.22c-.52-2.07-1-4.83-1.52-7.5s-1-5.49-1.55-7.63a1,1,0,0,0-1-.75l-.24,0a1,1,0,0,0-.73,1.21,63.65,63.65,0,0,1,1,8.73c.08.94.14,1.81.21,2.51A15,15,0,0,1,168,328.5c-2.09,4.4-7,7.23-12.54,7.23a14.86,14.86,0,0,1-3.48-.41,11.73,11.73,0,0,1-7.47-5.37,15.66,15.66,0,0,1-1-2.5c-.78-2.15-1.65-4.58-4.09-5.7-.62-.28-2.09-.88-4.31-1.78-10.07-4.1-33.66-13.69-43.77-20.87-11.27-8-11.51-25.22-10.66-34.77a.28.28,0,0,0,0-.09v-.08L137.17,253m.14-1L79.63,263.34v.9c-.7,7.75-1.34,26.86,11.07,35.67s44.87,21.2,48.25,22.75c3,1.37,3.23,5.2,4.66,7.78a12.71,12.71,0,0,0,8.11,5.85,15.45,15.45,0,0,0,3.72.44c5.48,0,11.05-2.77,13.44-7.79a16.11,16.11,0,0,0,1.66-8.09c-.28-2.92-.56-8.55-1.28-11.39,1.07,4.21,2,10.92,3.07,15.13,1,4,1.87,7.62,5.41,9.7a10.14,10.14,0,0,0,1.55.75,11.2,11.2,0,0,0,4,.72,12.46,12.46,0,0,0,6.86-2.09,14.76,14.76,0,0,0,6.07-9.24,31.49,31.49,0,0,0,.51-6.29c.07-5.75.37-11.58-.39-17.25-1.29-9.49-7.83-20.07-21.42-28.54s-37.58-20.43-37.58-20.43Z" style="fill:#e0e0e0"></path><path d="M168,303.11c-2.26-5.14-4.25-7.08-9.33-10.65s-21.15-12.3-21.15-12.3,3.14-6.09,3-11.13c-4.74,9.49-10.76,12.05-10.76,12.05s9.18,4.15,16.59,8.51c6.09,3.58,13.21,6.66,16.82,11.08A29.9,29.9,0,0,1,169,312.06c1.06,4.21,2.29,8.32,3.35,12.53a23.41,23.41,0,0,0,2.45,6.82C173,319.31,170,307.52,168,303.11Z" style="fill:#e0e0e0"></path><path d="M224.9,211.87c3.5,0,5.34,4,5.91,9.22s-.52,12.3-6.56,12.3S215.62,211.87,224.9,211.87Z" style="fill:#e0e0e0"></path><path d="M232.14,213.25c-3.45,3.5-3.11,4.67-7.24,4.69s-20.38,0-20.38,0l.61,9.38s16.8-.76,19.77-.79,10.61,4.37,10.61,4.37Z" style="fill:#263238"></path><path d="M136,186.33c10.07,1.61,12.3,3.73,25.85,10.59,12.29,6.22,28.4,14.69,28.4,14.69l34.61.26c-4.89,4.07-5.33,15.48-.65,21.52,0,0-13.18.76-27,1.81-8.94.68-13.24-.93-22.22-4.11-8-2.83-34.63-13.51-34.63-13.51Z" style="fill:#f5f5f5"></path><path d="M137.22,187.54c6.85,1.22,9.84,2.79,17.1,6.59,2,1.07,4.32,2.27,7.12,3.68,12.14,6.15,28.23,14.6,28.39,14.69a1,1,0,0,0,.46.11l32.36.24c-3.47,4.88-3.63,13.78-.21,19.65-4,.24-14.5.88-25.22,1.7-1.34.1-2.56.15-3.72.15-6.22,0-10.22-1.41-17.48-4l-.62-.22c-7.25-2.56-30.23-11.74-34.05-13.27l-4.13-29.33M136,186.33l4.4,31.25s26.64,10.68,34.63,13.51c7.61,2.69,11.86,4.26,18.43,4.26,1.18,0,2.43,0,3.79-.15,13.78-1,27-1.81,27-1.81-4.68-6-4.24-17.45.65-21.52l-34.61-.26s-16.11-8.47-28.4-14.69c-13.55-6.86-15.78-9-25.85-10.59Z" style="fill:#e0e0e0"></path><path id="freepik--sphere-12--inject-14" d="M236.06,208.18c-2.1.21-4.06,1.8-5.39,4.73-2.66,5.86-1.78,14.85,2,20.09,1.87,2.62,4.11,3.8,6.21,3.59a14.27,14.27,0,0,0-2.79-28.41Z" style="fill:#37474f"></path><path d="M246.48,219.89c-.59.05-.34,2.83.24,2.78l112.4-11.29Z" style="fill:#455a64"></path><path d="M244.24,211a6.28,6.28,0,0,1,2,1.81,3,3,0,0,1,.42,2.61,5,5,0,0,1-1.93,2.08,25.36,25.36,0,0,0-5,4.4,11.56,11.56,0,0,0-1.94,3.37c-.45,1.29-.38,2.66-.8,4a2.53,2.53,0,0,1-1.49,1.72,2.2,2.2,0,0,1-2-.43,4.65,4.65,0,0,1-1.27-1.64,16.92,16.92,0,0,1-1.47-5.39,23.07,23.07,0,0,1-.11-6.32,12.18,12.18,0,0,1,2.33-5.83,5.13,5.13,0,0,1,4.11-2.07A13.16,13.16,0,0,1,244.24,211Z" style="fill:#455a64"></path><g id="freepik--top--inject-14"><path d="M141.71,238.26a29.88,29.88,0,0,1,1.91-5.54c1.92-4.33,3.82-8.12,4.28-12.94a48.86,48.86,0,0,0-.79-14.58c-1.21-5.85-3.37-13.4-8.09-17.42-2.46-2.08-5.61-3.13-8.72-4A86,86,0,0,0,117,181.39c-4-.4-5.13-1.71-9-1-5,.89-8.59.86-11.51-1.24-1.69,8-5.19,15.34-8.56,21.57-2.44,4.52-8.46,8.39-8.46,8.39s5.89,17.75,3.38,31.41c-1.05,5.68-5.57,21.58-4.62,23.5,3.73,7.52,21.43,11.62,36.44,8.33,26.4-5.8,28.62-17.43,28.62-17.43a83.34,83.34,0,0,1-1.81-9A20.32,20.32,0,0,1,141.71,238.26Z" style="fill:#e0e0e0"></path><path d="M99.57,273.34a55.7,55.7,0,0,0,2.82-13.09,97.61,97.61,0,0,0-1-20.56c-.47-3.44-1.11-6.84-1.84-10.23a52.82,52.82,0,0,1-1.43-9.77c-.18-6.81,1-13.75,2.26-20.41a174.48,174.48,0,0,1,4.22-17.08c.76-.15,1.53-.29,2.3-.42-2.57,12.24-6.22,24.36-6.21,37a47.81,47.81,0,0,0,1.31,9.9c.7,3.25,1.32,6.51,1.8,9.8a106.55,106.55,0,0,1,1.29,20.34,57.11,57.11,0,0,1-2.88,14.68C101.3,273.45,100.43,273.4,99.57,273.34Z" style="opacity:0.15"></path></g><path d="M121.34,131.51c-6.31,1-11.68,4.61-14.13,12.88s-.58,16.42,1.71,23.16S121.34,131.51,121.34,131.51Z" style="fill:#37474f"></path><path d="M107,179.33c2.91.13,2.5-5.07,2.71-7.78s-4.07-11.77-.37-24.57c3.06-10.62,9.64-16.46,17.83-16s19.31,2.67,23.4,7.8,5.75,19.39.92,31.69-14.14,13.63-19.4,11.84a11,11,0,0,0-.35,2.47c0,1.08,3.13.1,3.9,6.11.72,5.67-.7,14.55-9.07,11.2-6.94-2.77-19.82-9.13-23.39-19.6C102.72,178.69,107,179.33,107,179.33Z" style="fill:#f0f0f0"></path><path d="M127.17,186.27c-1-1.17-1-2.76-2.2-3.81a13.85,13.85,0,0,0-2.65-1.58,23.25,23.25,0,0,1-6.21-4.76,17.43,17.43,0,0,1-3.28-6.41,4.88,4.88,0,0,1-.3-1.5.3.3,0,0,1,.11-.27c.14-.08.29.09.36.24.34.67.62,1.36,1,2a14.55,14.55,0,0,0,4.13,4c1.31,1,2.73,1.56,4.09,2.38a39.93,39.93,0,0,0,4.87,2.28c1.53.65,3.09,1.25,4.66,1.8s2.71.93,3.69,2.29a12.47,12.47,0,0,1-3.33-.63,11,11,0,0,0-.35,2.47c0,.52.73.57,1.56,1.13.1,1.67.47,4.83.47,5.21a6.81,6.81,0,0,1-1.25,4.39.56.56,0,0,1-.27.21c-.2.06-.41-.14-.45-.35a1.21,1.21,0,0,1,.1-.62c.6-1.85,1.08-4.87-.67-6.28C130,187.46,128.25,187.52,127.17,186.27Z" style="fill:#e0e0e0"></path><path d="M127,130.54a58,58,0,0,1,11.48,1.82l-.14.43-13.89,9.15c-8.21-1.95-12.54,1.77-13.91,6a48.61,48.61,0,0,0-1.59,19.62c-1-5.09-2.29-12.68,0-20.73C112,136.2,118.77,130.1,127,130.54Z" style="fill:#455a64"></path><path d="M120.45,173.93c-1.87-3.18-2.45-12.65-1-21.45,1.48-9.14,6.43-19.1,15.28-21,6.47,1.24,13,3.62,15.89,7.25,4.1,5.13,5.75,19.39.92,31.69s-14.14,13.63-19.4,11.84C125.51,180.7,123,178.22,120.45,173.93Z" style="fill:#37474f"></path><path d="M124.92,159.5c1.51-14.38,7.64-27.38,19.86-24.91a16.17,16.17,0,0,1,5.81,4.17c4.1,5.13,5.75,19.39.92,31.69s-14.14,13.63-19.4,11.84C126.2,178.59,123.64,171.79,124.92,159.5Z" style="fill:#455a64"></path><path d="M106.62,179.3l.4,0c1.14.06,1.77-.72,2.13-1.84a1.41,1.41,0,0,1,.11.38,25,25,0,0,0,.72,3.95,14.64,14.64,0,0,0,1.08,2.73,20.6,20.6,0,0,0,3.13,4.46,43.17,43.17,0,0,0,6.35,5.48c.14.31-2.89-1-3.79-1.61a34.57,34.57,0,0,1-5.52-4.5c-1.92-2-3.88-4.59-4.41-7.34A9.54,9.54,0,0,1,106.62,179.3Z" style="fill:#e0e0e0"></path><path d="M123,324.71c-.11-12,5.82-27.12,26-39.5,20.68-12.67,30.5-9.7,30.5-9.7a53.07,53.07,0,0,0-18.16-11c-16.85.61-29.68,11.69-37,17.36-11.3,8.78-17.17,22.55-17.33,33.63Z" style="fill:#e0e0e0"></path><path d="M33.5,232.43c-.49,3.51,2.27,5.87,8.8,7.32s10.58.85,11.13-1.82c1-4.67-3-6.45-8.68-7.94S34,228.91,33.5,232.43Z" style="fill:#e0e0e0"></path><path d="M96.9,179.43c-7.31-4.44-11.55-5.18-17.68-2-7,3.61-23.48,14.91-30.33,19.6-9.25,6.35-12,7.51-13.25,17-1.12,8.58-2.14,18.39-2.14,18.39s3.5-3.57,12.18-1.11c7.39,2.09,7.75,6.61,7.75,6.61l3.83-18.72,21.95-9.55S95.09,203.93,96.9,179.43Z" style="fill:#f5f5f5"></path><path d="M86.15,176.48c2.7,0,5.54,1,9.7,3.49-1.95,23-16.83,28.69-17,28.75l-.06,0-22,9.56a1,1,0,0,0-.58.71l-3.21,15.72c-1.15-1.53-3.26-3.28-7.12-4.37a21.89,21.89,0,0,0-6-.9,12.55,12.55,0,0,0-5.29,1c.36-3.33,1.12-10.18,1.92-16.33,1.09-8.34,3.15-9.74,10.82-14.95l2-1.37c5.73-3.93,23.16-15.89,30.22-19.54a13.92,13.92,0,0,1,6.47-1.83m0-1a14.87,14.87,0,0,0-6.93,1.94c-7,3.61-23.48,14.91-30.33,19.6-9.25,6.34-12,7.51-13.25,17-1.12,8.58-2.14,18.39-2.14,18.39s1.93-2,6.5-2a20.89,20.89,0,0,1,5.68.86c7.39,2.09,7.75,6.61,7.75,6.61l3.83-18.72,21.95-9.55s15.88-5.73,17.69-30.23c-4.31-2.62-7.56-4-10.75-4Z" style="fill:#e0e0e0"></path><path d="M71.71,181.84a24.48,24.48,0,0,0,3.81,9.81l-6.67,4a22,22,0,0,1-3.6-9.67Z" style="fill:#BA68C8"></path><path d="M73.4,187.74l-6.72,3.8a22.21,22.21,0,0,0,2.17,4.07l6.67-4A24.88,24.88,0,0,1,73.4,187.74Z" style="opacity:0.2"></path><path d="M65.53,187.85a20.79,20.79,0,0,0,1.15,3.69l6.72-3.8a25.18,25.18,0,0,1-1.23-3.57Z" style="fill:#fff"></path><path d="M116,328a7.46,7.46,0,0,1-3.73-1.11l-45.12-26c-4.56-2.63-8.13-9.39-8.13-15.39v-9.2c0-3.44,1.22-6.12,3.36-7.35,1.86-1.07,4.15-.94,6.44.39L114,295.32c4.56,2.63,8.13,9.39,8.13,15.38v9.2c0,3.44-1.23,6.12-3.36,7.35A5.34,5.34,0,0,1,116,328ZM114,324a3.21,3.21,0,0,0,3.1.38c1-.61,1.68-2.27,1.68-4.45v-9.2c0-4.75-3-10.47-6.45-12.49l-45.12-26a3.21,3.21,0,0,0-3.1-.38c-1.06.61-1.69,2.27-1.69,4.45v9.2c0,4.75,3,10.47,6.46,12.49Z" style="fill:#455a64"></path><path d="M106.61,294.79l-3.23-6a21.33,21.33,0,0,0-6.58-7.13L70.11,266.22l0,.07,3.16,5.9-3,1.58-3.15-5.9c-1.25-2.33-1.34-4-.27-5.07.67-.65,1.94-1.15,4.2.15l27.34,15.79a24.28,24.28,0,0,1,7.86,8.44l3.23,6Z" style="fill:#455a64"></path><path d="M76.58,289.57c-10.88-6.28-20.74-6.88-27.87-2.75l-3.63,2.09-.32.19c-7.12,4.12-11.54,12.93-11.54,25.51,0,25.12,17.65,55.68,39.4,68.23,10.88,6.28,20.73,6.88,27.87,2.76l.14-.08,3.8-2.2c7.14-4.11,11.54-12.94,11.54-25.51C116,332.68,98.34,302.14,76.58,289.57ZM97.8,381c-6.28,3.63-15,3-24.74-2.74-19.44-11.48-35.38-39.09-35.61-61.67-.12-11.27,3.71-19.17,10-22.8s15-3,24.74,2.74c19.44,11.49,35.38,39.1,35.61,61.67C107.92,369.44,104.09,377.32,97.8,381Z" style="fill:#37474f"></path><path d="M72.62,291.85c-10.7-6.19-20.43-6.86-27.54-2.94l-.32.19c-7.12,4.12-11.54,12.93-11.54,25.51,0,25.12,17.65,55.68,39.4,68.23,10.88,6.28,20.73,6.88,27.87,2.76l.14-.08c7-4.15,11.4-12.94,11.4-25.42C112,335,94.38,304.42,72.62,291.85ZM97.8,381c-6.28,3.63-15,3-24.74-2.74-19.44-11.48-35.38-39.09-35.61-61.67-.12-11.27,3.71-19.17,10-22.8s15-3,24.74,2.74c19.44,11.49,35.38,39.1,35.61,61.67C107.92,369.44,104.09,377.32,97.8,381Z" style="fill:#455a64"></path><path d="M72.62,294.42A39.45,39.45,0,0,0,61.76,290c-5.89-1.31-11.17-.63-15.42,1.82C39.61,295.7,35.45,304,35.45,315.88c0,23.71,16.65,52.55,37.17,64.39,10.27,5.93,19.56,6.5,26.3,2.6,4.11-2.37,7.26-6.4,9.06-11.89l0-.12a38.27,38.27,0,0,0,1.77-12.05C109.8,335.1,93.15,306.28,72.62,294.42ZM97.8,381c-6.28,3.63-15,3-24.74-2.74-19.44-11.48-35.38-39.09-35.61-61.67-.12-11.27,3.71-19.17,10-22.8A14.59,14.59,0,0,1,49,293c6.13-2.74,14.26-1.78,23.21,3.51,19.44,11.49,35.38,39.1,35.61,61.67.11,10.52-3.2,18.08-8.74,22C98.64,380.43,98.23,380.7,97.8,381Z" style="fill:#BA68C8"></path><path d="M99.06,380.14c-.42.29-.83.56-1.26.81-6.28,3.63-15,3-24.74-2.74-19.44-11.48-35.38-39.09-35.61-61.67-.12-11.27,3.71-19.17,10-22.8A14.59,14.59,0,0,1,49,293c-5.51,3.93-8.79,11.48-8.68,22,.23,22.57,16.17,50.17,35.6,61.67C84.81,381.86,92.92,382.83,99.06,380.14Z" style="fill:#BA68C8"></path><path d="M99.06,380.14c-.42.29-.83.56-1.26.81-6.28,3.63-15,3-24.74-2.74-19.44-11.48-35.38-39.09-35.61-61.67-.12-11.27,3.71-19.17,10-22.8A14.59,14.59,0,0,1,49,293c-5.51,3.93-8.79,11.48-8.68,22,.23,22.57,16.17,50.17,35.6,61.67C84.81,381.86,92.92,382.83,99.06,380.14Z" style="opacity:0.2"></path><path d="M74.26,335.61l.65.95L106,344.89l.24,1.09-30.69-8.2.48,1.43,31,27.47c-.09.37-.18.73-.28,1.09L76.15,340.61l-.42,1.07,22.44,39c-.28.18-.56.36-.85.52l-22.45-39L73.73,342l8.15,39c-.35-.09-.72-.23-1.09-.34l-8.24-39.47-1-1.14L64,368.4c-.28-.24-.55-.5-.83-.75l7.7-28.75-.49-1L49.16,350.1l-.48-.87L69.85,337l-.64-.94-28.48-7.63-.21-1.09,28,7.5L68,333.42,39.52,308.14c.1-.36.2-.71.31-1.06L68,332l.42-1.07L47.1,294.1c.28-.17.58-.33.87-.49l21.27,36.84,1.14.16-7.84-38.28c.36.09.72.18,1.08.29l7.94,38.76,1,1.14,8-29.93c.29.24.56.49.84.74l-8.14,30.39.49,1,22.58-13,.51.86Z" style="fill:#ebebeb"></path><path d="M68.44,296.79a39.52,39.52,0,0,0-10.86-4.41c-5.9-1.31-11.17-.63-15.42,1.81-6.74,3.88-10.89,12.22-10.89,24.07,0,23.71,16.64,52.54,37.17,64.39,10.26,5.92,19.56,6.49,26.29,2.6,4.11-2.37,7.27-6.4,9.07-11.89,0-.05,0-.08,0-.13a37.92,37.92,0,0,0,1.77-12C105.61,337.48,89,308.66,68.44,296.79Zm25.17,86.54c-6.28,3.63-15,3-24.74-2.74-19.43-11.48-35.37-39.1-35.6-61.67-.13-11.28,3.7-19.17,10-22.8a12.75,12.75,0,0,1,1.52-.77c6.14-2.74,14.26-1.79,23.22,3.51,19.43,11.49,35.37,39.09,35.6,61.66.11,10.53-3.2,18.08-8.74,22C94.46,382.8,94,383.08,93.61,383.33Z" style="fill:#e6e6e6"></path><path d="M68.44,296.79a39.52,39.52,0,0,0-10.86-4.41c-5.9-1.31-11.17-.63-15.42,1.81-6.74,3.88-10.89,12.22-10.89,24.07,0,23.71,16.64,52.54,37.17,64.39,10.26,5.92,19.56,6.49,26.29,2.6,4.11-2.37,7.27-6.4,9.07-11.89,0-.05,0-.08,0-.13a37.92,37.92,0,0,0,1.77-12C105.61,337.48,89,308.66,68.44,296.79Zm25.17,86.54c-6.28,3.63-15,3-24.74-2.74-19.43-11.48-35.37-39.1-35.6-61.67-.13-11.28,3.7-19.17,10-22.8a12.75,12.75,0,0,1,1.52-.77c6.14-2.74,14.26-1.79,23.22,3.51,19.43,11.49,35.37,39.09,35.6,61.66.11,10.53-3.2,18.08-8.74,22C94.46,382.8,94,383.08,93.61,383.33Z" style="opacity:0.2"></path><path d="M72.92,328.5c-1.93-1.12-3.67-1.19-4.91-.41-.25.16-.57.3-.9.5l-.26.17,0,0h0l-.34.28-.07.07a2.55,2.55,0,0,0-.26.3.58.58,0,0,0-.1.12l-.21.31a1.62,1.62,0,0,1-.1.18,3.13,3.13,0,0,0-.15.32,2.6,2.6,0,0,0-.1.25,2.83,2.83,0,0,0-.11.31l-.09.34c0,.1-.05.19-.07.29l-.06.45a1.9,1.9,0,0,0,0,.25,6.06,6.06,0,0,0,0,.75,15.08,15.08,0,0,0,6.81,11.8l.7.36.4.16.28.11.27.08.39.1.15,0,.49.08h0a3.55,3.55,0,0,0,2.22-.52c.33-.2.62-.34,1-.56,1.19-.72,1.93-2.23,1.93-4.36A15,15,0,0,0,72.92,328.5ZM71,341.58a16.57,16.57,0,0,1-3.45-5.2c.36.24.76.5,1.19.73,1.77.91,1.73-.33,2.45.53s.58,3,0,4.07A.8.8,0,0,1,71,341.58Zm3.45-8.06a1.11,1.11,0,0,0-.29.13l-1,.59a1.36,1.36,0,0,0-.52.52,9.5,9.5,0,0,1-1.81-5.09,11.38,11.38,0,0,1,4.45,3.46.64.64,0,0,1,.07.19A4,4,0,0,0,74.43,333.52Zm-5.17-.9c.57,2.05,1.44,2.37,1.49,3-1.34-.22-3.51-1.52-3.66-2.81a5.13,5.13,0,0,1,1.18-3.45C68.83,329.65,68.8,330.93,69.26,332.62Zm3.85,10.79c-.71-.65.08-1.28.44-2.62a3.59,3.59,0,0,0,0-2c1.4,1.1,3.49,4,3,4.84l-.07.09A4.52,4.52,0,0,1,73.11,343.41Zm3.32-4.48c-1.48-2-2.06-1.29-2.42-2.35a1.37,1.37,0,0,1,.48-1.42,1.77,1.77,0,0,1,2.15.72A12.9,12.9,0,0,1,77.79,341C77.44,340.43,77,339.68,76.43,338.93Z" style="fill:#e0e0e0"></path><path d="M72.92,328.5c-1.93-1.12-3.67-1.19-4.91-.41-.25.16-.57.3-.9.5l-.26.17,0,0h0l-.34.28-.07.07a2.55,2.55,0,0,0-.26.3.58.58,0,0,0-.1.12l-.21.31a1.62,1.62,0,0,1-.1.18,3.13,3.13,0,0,0-.15.32,2.6,2.6,0,0,0-.1.25,2.83,2.83,0,0,0-.11.31l-.09.34c0,.1-.05.19-.07.29l-.06.45a1.9,1.9,0,0,0,0,.25,6.06,6.06,0,0,0,0,.75,15.08,15.08,0,0,0,6.81,11.8l.7.36.4.16.28.11.27.08.39.1.15,0,.49.08h0a3.55,3.55,0,0,0,2.22-.52c.33-.2.62-.34,1-.56,1.19-.72,1.93-2.23,1.93-4.36A15,15,0,0,0,72.92,328.5ZM71,341.58a16.57,16.57,0,0,1-3.45-5.2c.36.24.76.5,1.19.73,1.77.91,1.73-.33,2.45.53s.58,3,0,4.07A.8.8,0,0,1,71,341.58Zm3.45-8.06a1.11,1.11,0,0,0-.29.13l-1,.59a1.36,1.36,0,0,0-.52.52,9.5,9.5,0,0,1-1.81-5.09,11.38,11.38,0,0,1,4.45,3.46.64.64,0,0,1,.07.19A4,4,0,0,0,74.43,333.52Zm-5.17-.9c.57,2.05,1.44,2.37,1.49,3-1.34-.22-3.51-1.52-3.66-2.81a5.13,5.13,0,0,1,1.18-3.45C68.83,329.65,68.8,330.93,69.26,332.62Zm3.85,10.79c-.71-.65.08-1.28.44-2.62a3.59,3.59,0,0,0,0-2c1.4,1.1,3.49,4,3,4.84l-.07.09A4.52,4.52,0,0,1,73.11,343.41Zm3.32-4.48c-1.48-2-2.06-1.29-2.42-2.35a1.37,1.37,0,0,1,.48-1.42,1.77,1.77,0,0,1,2.15.72A12.9,12.9,0,0,1,77.79,341C77.44,340.43,77,339.68,76.43,338.93Z" style="opacity:0.2"></path><path d="M71.87,329.09c-3.76-2.17-6.81-.41-6.81,3.93a15.08,15.08,0,0,0,6.81,11.8c3.76,2.16,6.8.4,6.8-3.94A15,15,0,0,0,71.87,329.09Zm-1.69.46c1.35,0,4.58,2.65,5,3.58s-.74.59-1.82,1c-1.38.48-.73,1.82-1.54,1.48C70.67,335.1,68.84,329.53,70.18,329.55Zm-2-.2c.69.12.61,1.47,1.1,3.27.63,2.27,1.62,2.41,1.48,3.26-.2,1.25-4.49-.61-4.7-2.44S67.46,329.23,68.16,329.35Zm1.77,12.82c-1.47-1.15-3.7-5.25-3.72-6.11s1.12.33,2.51,1.05c1.77.91,1.73-.33,2.45.53C72.23,338.9,71.41,343.32,69.93,342.17Zm6.55,1.51c-.7,1.12-3.7,1-4.41.32s.08-1.28.44-2.63c.46-1.7-.55-2.62,0-2.93C73.4,338,77.18,342.56,76.48,343.68Zm-1.08-4.16c-1.48-2-2.07-1.3-2.43-2.35-.53-1.54,2.63-3.12,3.67-1.29s1.41,5.85,1,6.31S76.56,341.07,75.4,339.52Z" style="fill:#e0e0e0"></path><path d="M72.06,338c.59.35,1.08.07,1.08-.62a2.41,2.41,0,0,0-1.08-1.88c-.6-.35-1.09-.07-1.09.62A2.38,2.38,0,0,0,72.06,338Z" style="fill:#455a64"></path></g></g></svg>
